<svg xmlns="http://www.w3.org/2000/svg"  viewBox="0 0 256 256" width="50px" height="50px" fill-rule="evenodd" clip-rule="evenodd"><path fill="#D7E057" d="M69.046,68.172c0,0,3.563,13.236,13.824,13.85c0,0-13.697,4.731-13.928,14.849c0,0-2.696-14.19-13.514-14.7 C55.428,82.171,68.027,80.262,69.046,68.172z"/><path fill="#3A312A" d="M68.941,98.369c-0.713,0-1.335-0.506-1.472-1.218c-0.025-0.13-2.617-13.035-12.111-13.482 c-0.77-0.036-1.387-0.65-1.427-1.421c-0.04-0.77,0.511-1.444,1.273-1.561c0.464-0.072,11.443-1.905,12.348-12.642 c0.061-0.726,0.634-1.301,1.359-1.367c0.734-0.062,1.393,0.399,1.583,1.102c0.033,0.122,3.419,12.202,12.466,12.744 c0.714,0.043,1.297,0.584,1.396,1.292c0.098,0.708-0.319,1.388-0.994,1.622c-0.127,0.045-12.715,4.522-12.919,13.466 c-0.018,0.767-0.61,1.396-1.374,1.46C69.025,98.367,68.982,98.369,68.941,98.369z M60.666,82.003 c2.715,1.351,5.047,3.701,6.883,6.975c0.473,0.843,0.876,1.68,1.217,2.475c2.115-4.325,6.336-7.276,9.524-8.997 c-4.44-1.923-7.253-6.023-8.875-9.277C67.535,77.878,63.78,80.54,60.666,82.003z"/><path fill="#D7E057" d="M46.359,85.926c0,0,2.52,9.362,9.778,9.796c0,0-9.688,3.347-9.851,10.503c0,0-1.907-10.037-9.558-10.397 C36.727,95.827,45.639,94.477,46.359,85.926z"/><path fill="#3A312A" d="M46.284,107.725c-0.713,0-1.337-0.508-1.472-1.22c-0.017-0.087-1.79-8.88-8.155-9.18 c-0.77-0.036-1.387-0.65-1.427-1.421c-0.04-0.769,0.511-1.444,1.273-1.56c0.312-0.049,7.752-1.306,8.362-8.544 c0.061-0.726,0.635-1.303,1.36-1.368c0.726-0.063,1.392,0.399,1.582,1.102l0,0c0.023,0.083,2.341,8.327,8.42,8.691 c0.714,0.043,1.299,0.584,1.396,1.293c0.098,0.709-0.32,1.389-0.996,1.622c-0.085,0.029-8.704,3.102-8.842,9.119 c-0.018,0.768-0.611,1.398-1.376,1.461C46.367,107.723,46.325,107.725,46.284,107.725z M41.425,95.737 c2.287,1.409,3.803,3.644,4.777,5.665c1.454-2.419,3.774-4.18,5.753-5.344c-2.48-1.338-4.192-3.597-5.307-5.604 C45.411,92.936,43.42,94.639,41.425,95.737z"/><path fill="#D7E057" d="M46.359,58.054c0,0,2.52,9.362,9.778,9.796c0,0-9.688,3.346-9.851,10.503c0,0-1.907-10.037-9.558-10.397 C36.727,67.956,45.639,66.606,46.359,58.054z"/><path fill="#3A312A" d="M46.284,79.854c-0.713,0-1.337-0.508-1.472-1.22c-0.017-0.087-1.79-8.88-8.155-9.18 c-0.77-0.036-1.387-0.65-1.427-1.421c-0.04-0.77,0.511-1.444,1.273-1.561c0.312-0.049,7.752-1.306,8.362-8.544 c0.061-0.726,0.635-1.303,1.36-1.368c0.726-0.07,1.392,0.4,1.582,1.102l0,0c0.023,0.083,2.341,8.327,8.42,8.691 c0.714,0.043,1.299,0.584,1.396,1.293c0.098,0.709-0.32,1.389-0.996,1.622c-0.085,0.029-8.704,3.102-8.842,9.119 c-0.018,0.768-0.611,1.397-1.376,1.461C46.367,79.852,46.325,79.854,46.284,79.854z M41.425,67.866 c2.287,1.409,3.803,3.644,4.777,5.665c1.454-2.419,3.774-4.18,5.753-5.344c-2.48-1.338-4.192-3.597-5.307-5.604 C45.411,65.064,43.42,66.768,41.425,67.866z"/><path fill="#FCE8CB" d="M217.967,228.474l-6.36-16.2l-11.452,5.711c-0.09,0.06-0.178,0.123-0.273,0.178l6.334,14.101 c1.98,4.2,3.68,7.33,6.49,7.16c1.14,0,1.77-0.24,2.88-0.7C220.187,236.844,219.857,233.074,217.967,228.474z"/><path fill="#3A312A" d="M212.395,240.934c-3.75,0-5.758-4.26-7.535-8.029l-6.345-14.126c-0.313-0.696-0.052-1.518,0.605-1.906 l0.212-0.141c0.049-0.032,0.101-0.063,0.153-0.089l11.452-5.711c0.376-0.188,0.815-0.208,1.208-0.058 c0.393,0.151,0.705,0.461,0.858,0.853l6.355,16.189c1.028,2.505,2.059,5.728,0.912,8.467c-0.686,1.64-2.071,2.895-4.117,3.73 c-1.21,0.501-2.028,0.811-3.447,0.811C212.602,240.931,212.498,240.934,212.395,240.934z M201.826,218.828l5.759,12.822 c1.953,4.141,3.329,6.34,5.031,6.276c0.942-0.003,1.348-0.153,2.396-0.588c1.306-0.533,2.119-1.225,2.491-2.114 c0.556-1.328,0.262-3.292-0.924-6.18c-0.003-0.008-0.006-0.015-0.009-0.022l-5.761-14.674L201.826,218.828z"/><path fill="#87796F" d="M211.606,212.276l-11.73,5.85l-41.82-93.07c-1.89-4.6,0.31-9.85,4.91-11.74c4.6-1.88,9.86,0.32,11.74,4.92 L211.606,212.276z"/><path fill="#3A312A" d="M199.876,219.626c-0.17,0-0.341-0.029-0.504-0.087c-0.385-0.138-0.696-0.426-0.864-0.798l-41.82-93.069 c-2.218-5.397,0.352-11.543,5.709-13.743c5.364-2.19,11.509,0.384,13.699,5.74l36.908,94.06c0.284,0.724-0.032,1.544-0.727,1.891 l-11.73,5.85C200.335,219.573,200.106,219.626,199.876,219.626z M166.369,114.146c-0.946,0-1.907,0.179-2.835,0.559 c-3.824,1.57-5.66,5.959-4.09,9.781l41.161,91.601l9.104-4.54l-36.399-92.763C172.131,115.9,169.325,114.146,166.369,114.146z"/><path fill="#FCE8CB" d="M109.667,225.084l-3.95,5.07c-1.75,2.11-7.01,9.27-9.76,9.27h-13.7c-3.11,0-5.63-2.52-5.63-5.63 c0-3.1,2.52-5.62,5.63-5.62h11.52c0.45-0.68,0.95-1.39,1.53-2.12l5.1-7.57L109.667,225.084z"/><path fill="#3A312A" d="M95.957,240.924h-13.7c-3.932,0-7.13-3.198-7.13-7.13c0-3.926,3.198-7.12,7.13-7.12h10.725 c0.373-0.537,0.741-1.034,1.114-1.506l5.067-7.521c0.226-0.336,0.578-0.565,0.977-0.638c0.396-0.074,0.809,0.018,1.138,0.254 l9.26,6.6c0.333,0.237,0.555,0.601,0.614,1.005c0.059,0.405-0.05,0.816-0.301,1.139l-3.95,5.07c-0.265,0.32-0.565,0.698-0.917,1.14 C101.593,237.73,98.545,240.924,95.957,240.924z M82.257,229.674c-2.277,0-4.13,1.849-4.13,4.12c0,2.277,1.852,4.13,4.13,4.13h13.7 c0.752,0,2.694-1.314,7.679-7.577c0.366-0.459,0.68-0.854,0.926-1.149l2.96-3.8l-6.732-4.798l-4.239,6.293 c-0.022,0.033-0.045,0.064-0.07,0.096c-0.483,0.607-0.958,1.266-1.454,2.014c-0.278,0.42-0.747,0.672-1.25,0.672H82.257z"/><path fill="#87796F" d="M116.063,195.243l-15.661,23.245l9.272,6.603l58.369-74.819c2.963-3.991,2.129-9.628-1.862-12.591 c-3.99-2.962-9.629-2.13-12.591,1.862l-29.195,43.333L116.063,195.243z"/><path fill="#3A312A" d="M109.673,226.591c-0.302,0-0.605-0.091-0.869-0.278l-9.272-6.602c-0.663-0.472-0.828-1.386-0.374-2.06 l15.662-23.245c0.464-0.688,1.394-0.868,2.083-0.406c0.687,0.463,0.869,1.396,0.406,2.082l-14.845,22.033l6.913,4.922 l57.485-73.687c2.443-3.292,1.747-7.998-1.574-10.464c-1.609-1.194-3.59-1.692-5.567-1.396c-1.982,0.293-3.731,1.34-4.924,2.948 l-29.156,43.277c-0.463,0.688-1.396,0.868-2.082,0.406c-0.688-0.463-0.869-1.395-0.406-2.082l29.195-43.333 c1.71-2.309,4.159-3.775,6.934-4.185c2.777-0.41,5.543,0.284,7.794,1.956c4.649,3.451,5.624,10.04,2.173,14.69l-58.391,74.847 C110.562,226.392,110.121,226.591,109.673,226.591z"/><path fill="#F16C7A" d="M158.888,87.35l18.831-19.554l-6.638-28.483c-0.774-3.227,1.197-6.468,4.419-7.25 c2.53-0.614,5.071,0.478,6.424,2.531c0.369,0.559,0.657,1.196,0.825,1.888l7.303,31.258c0.424,1.751,0.038,3.6-1.051,5.036 l-21.884,23.589L158.888,87.35z"/><path fill="#3A312A" d="M167.117,97.864c-0.002,0-0.004,0-0.006,0c-0.419-0.002-0.819-0.179-1.102-0.488l-8.23-9.015 c-0.533-0.585-0.521-1.482,0.027-2.052l18.266-18.968l-6.453-27.688c-0.962-4.012,1.515-8.074,5.525-9.049 c3.064-0.742,6.293,0.526,8.031,3.164c0.48,0.728,0.826,1.521,1.03,2.357l7.306,31.272c0.529,2.187,0.051,4.48-1.316,6.283 c-0.03,0.039-0.062,0.077-0.096,0.114l-21.884,23.589C167.933,97.69,167.534,97.864,167.117,97.864z M160.944,87.377l6.182,6.772 l20.722-22.336c0.788-1.072,1.06-2.425,0.747-3.722l-7.306-31.269c-0.119-0.486-0.328-0.964-0.617-1.403 c-1.044-1.582-2.983-2.347-4.818-1.898c-2.407,0.584-3.894,3.025-3.314,5.442l6.641,28.491c0.115,0.495-0.028,1.016-0.38,1.381 L160.944,87.377z"/><path fill="#F5E1C5" d="M182.751,36.478c-0.17-0.691-0.457-1.323-0.827-1.887c-1.354-2.054-3.898-3.137-6.422-2.525 c-3.228,0.776-5.197,4.025-4.425,7.243l1.204,5.18l11.701-2.745L182.751,36.478z"/><path fill="#3A312A" d="M172.282,45.989c-0.277,0-0.552-0.077-0.792-0.226c-0.338-0.211-0.58-0.547-0.669-0.935l-1.204-5.181 c-0.964-4.016,1.518-8.076,5.535-9.042c3.063-0.739,6.289,0.525,8.025,3.159c0.48,0.731,0.827,1.522,1.032,2.354 c0.001,0.006,0.003,0.012,0.004,0.017l1.232,5.266c0.189,0.807-0.311,1.613-1.118,1.802l-11.702,2.746 C172.511,45.977,172.396,45.989,172.282,45.989z M176.912,33.396c-0.351,0-0.706,0.041-1.057,0.127 c-2.412,0.579-3.9,3.018-3.319,5.435l0.866,3.728l8.779-2.061l-0.888-3.797c-0.123-0.497-0.333-0.973-0.623-1.413 C179.829,34.139,178.401,33.396,176.912,33.396z"/><path fill="#F16C7A" d="M174.529,109.651l-3.457-11.986c-3.226-11.185-14.907-17.636-26.092-14.411l0,0 c-11.184,3.226-17.636,14.908-14.411,26.092l13.294,46.095l40.503-11.681v0l-6.043-20.954L174.529,109.651z"/><path fill="#3A312A" d="M143.863,156.941c-0.651,0-1.252-0.427-1.441-1.084l-13.294-46.095 c-3.45-11.962,3.475-24.499,15.437-27.949c5.793-1.673,11.893-0.987,17.171,1.93c5.279,2.915,9.106,7.712,10.778,13.506 l3.456,11.986c0.23,0.796-0.23,1.628-1.026,1.857c-0.796,0.23-1.627-0.229-1.857-1.025l-3.457-11.986 c-1.449-5.024-4.768-9.185-9.345-11.712c-4.577-2.528-9.865-3.123-14.89-1.673c-10.372,2.991-16.376,13.862-13.385,24.234 l12.878,44.654l37.621-10.85l-5.628-19.513c-0.23-0.796,0.23-1.628,1.026-1.858c0.798-0.23,1.628,0.23,1.857,1.025l6.043,20.954 c0.11,0.383,0.064,0.793-0.128,1.142c-0.192,0.348-0.515,0.605-0.897,0.716l-40.503,11.681 C144.141,156.923,144,156.941,143.863,156.941z"/><path fill="#F16C7A" d="M141.801,110.771l-6.535,16.562l16.766,23.963c1.92,2.706,1.297,6.448-1.402,8.374 c-2.119,1.512-4.884,1.445-6.905,0.043c-0.551-0.382-1.055-0.865-1.469-1.445l-18.417-26.291c-1.045-1.467-1.376-3.327-0.9-5.065 l7.286-19.308L141.801,110.771z"/><path fill="#3A312A" d="M147.149,162.28c-1.497,0-2.994-0.444-4.278-1.335c-0.717-0.497-1.334-1.104-1.835-1.805l-18.425-26.304 c-1.305-1.831-1.715-4.139-1.118-6.32c0.012-0.046,0.027-0.09,0.043-0.134l7.286-19.309c0.292-0.774,1.155-1.165,1.933-0.874 c0.775,0.292,1.166,1.158,0.874,1.933l-7.259,19.238c-0.333,1.291-0.083,2.648,0.691,3.735l18.424,26.302 c0.292,0.407,0.663,0.772,1.095,1.072c1.558,1.079,3.639,1.066,5.179-0.031c2.017-1.439,2.487-4.258,1.05-6.284l-16.772-23.972 c-0.289-0.413-0.351-0.942-0.167-1.411l6.535-16.562c0.304-0.771,1.174-1.149,1.946-0.845c0.77,0.305,1.148,1.176,0.845,1.946 l-6.239,15.811l16.304,23.303c2.387,3.365,1.6,8.059-1.76,10.455C150.205,161.816,148.677,162.28,147.149,162.28z"/><path fill="#F5E1C5" d="M142.256,158.273c0.415,0.578,0.917,1.058,1.471,1.443c2.022,1.402,4.786,1.46,6.9-0.048 c2.707-1.922,3.325-5.671,1.41-8.37l-3.047-4.359l-9.838,6.905L142.256,158.273z"/><path fill="#3A312A" d="M147.143,162.28c-1.494,0-2.989-0.443-4.271-1.332c-0.718-0.499-1.335-1.104-1.835-1.802 c-0.003-0.004-0.006-0.009-0.009-0.013l-3.104-4.429c-0.475-0.679-0.311-1.613,0.367-2.089l9.838-6.904 c0.327-0.229,0.732-0.314,1.122-0.25c0.393,0.069,0.741,0.292,0.969,0.618l3.046,4.359c2.39,3.368,1.598,8.062-1.771,10.452 C150.198,161.816,148.671,162.28,147.143,162.28z M143.479,157.404c0.299,0.415,0.67,0.778,1.104,1.08 c1.554,1.078,3.632,1.061,5.173-0.037c2.023-1.437,2.496-4.252,1.058-6.28l-2.192-3.137l-7.38,5.18L143.479,157.404z"/><circle cx="125.833" cy="28" r="11.428" fill="#87796F" transform="rotate(-37.401 125.83 28)"/><path fill="#3A312A" d="M125.842,40.929c-5.484,0-10.585-3.52-12.331-9.018c-2.157-6.794,1.616-14.076,8.411-16.233 c6.795-2.153,14.077,1.617,16.233,8.411l0,0c2.156,6.794-1.617,14.076-8.411,16.233C128.449,40.733,127.134,40.929,125.842,40.929z M125.826,18.071c-0.993,0-2.001,0.15-2.997,0.466c-5.218,1.656-8.115,7.249-6.459,12.466c1.656,5.218,7.246,8.113,12.466,6.46 c5.217-1.656,8.115-7.249,6.459-12.466C133.956,20.774,130.037,18.071,125.826,18.071z"/><path fill="#F4E0C4" fill-rule="evenodd" d="M120.618,67.692c0.843,2.657-0.627,5.495-3.284,6.338 c-2.657,0.843-5.495-0.627-6.338-3.284c-0.843-2.657,0.627-5.495,3.284-6.338C116.936,63.565,119.774,65.035,120.618,67.692z" clip-rule="evenodd"/><path fill="#3A312A" d="M115.811,75.767c-2.778,0-5.362-1.782-6.246-4.566c-1.092-3.44,0.819-7.129,4.26-8.222 c1.667-0.528,3.441-0.378,4.994,0.427c1.553,0.805,2.7,2.166,3.229,3.833c1.092,3.44-0.819,7.129-4.26,8.222 C117.131,75.668,116.466,75.767,115.811,75.767z M115.81,65.67c-0.361,0-0.723,0.056-1.077,0.168 c-1.865,0.592-2.9,2.591-2.309,4.454c0.592,1.864,2.591,2.899,4.455,2.309c1.864-0.592,2.9-2.59,2.308-4.454l0,0 c-0.287-0.903-0.908-1.642-1.75-2.077C116.927,65.804,116.371,65.67,115.81,65.67z"/><path fill="#F4E0C4" fill-rule="evenodd" d="M162.609,54.363c0.843,2.657-0.627,5.495-3.284,6.338 c-2.657,0.843-5.495-0.627-6.338-3.284c-0.843-2.657,0.627-5.495,3.284-6.338C158.928,50.236,161.766,51.706,162.609,54.363z" clip-rule="evenodd"/><path fill="#3A312A" d="M157.79,62.441c-1.034,0-2.06-0.248-3.004-0.737c-1.553-0.805-2.699-2.166-3.229-3.832 c-1.092-3.441,0.819-7.13,4.259-8.223c3.44-1.091,7.13,0.819,8.222,4.26c0.529,1.667,0.377,3.44-0.427,4.993 c-0.805,1.554-2.166,2.7-3.833,3.229C159.126,62.338,158.456,62.441,157.79,62.441z M157.795,52.343 c-0.355,0-0.715,0.054-1.071,0.166c-1.864,0.592-2.899,2.591-2.308,4.455c0.287,0.903,0.908,1.641,1.749,2.076 c0.841,0.436,1.802,0.518,2.705,0.231c0.904-0.286,1.641-0.907,2.077-1.749c0.436-0.841,0.518-1.802,0.231-2.705 C160.701,53.309,159.301,52.343,157.795,52.343z"/><path fill="#F4E0C4" d="M157.389,53.45c3.739,11.779-1.867,33.459-11.85,36.628c-9.53,3.025-27.067-11.31-30.805-23.089 c-3.739-11.779,2.779-24.359,14.558-28.098C141.071,35.153,153.65,41.671,157.389,53.45z"/><path fill="#3A312A" d="M142.71,91.988c-4.489,0-10.005-2.336-15.664-6.717c-6.61-5.117-11.876-11.949-13.742-17.828 c-3.983-12.549,2.986-25.998,15.534-29.981c12.546-3.983,25.998,2.987,29.981,15.534c1.886,5.942,1.59,14.536-0.772,22.427 c-2.577,8.608-6.971,14.472-12.055,16.085C144.978,91.83,143.878,91.988,142.71,91.988z M136.047,39.341 c-2.088,0-4.208,0.316-6.302,0.98c-10.972,3.482-17.064,15.242-13.582,26.214c1.691,5.33,6.565,11.6,12.72,16.364 c6.248,4.836,12.305,6.988,16.202,5.749c4.063-1.289,7.834-6.556,10.088-14.086c2.199-7.345,2.5-15.261,0.787-20.658l0,0 C153.142,45.025,144.902,39.341,136.047,39.341z"/><path fill="#3A312A" d="M130.536,61.708c0.365,1.15-0.271,2.378-1.421,2.742c-1.15,0.365-2.378-0.271-2.742-1.421 c-0.365-1.149,0.271-2.377,1.421-2.742C128.944,59.922,130.172,60.558,130.536,61.708z"/><path fill="#3A312A" d="M145.596,56.928c0.365,1.15-0.271,2.378-1.421,2.743c-1.15,0.365-2.377-0.271-2.742-1.421 c-0.365-1.149,0.271-2.377,1.421-2.742C144.004,55.142,145.231,55.778,145.596,56.928z"/><path fill="#F59689" d="M129.845,68.74c0.47,1.481-0.755,3.19-2.735,3.819c-1.98,0.629-3.967-0.062-4.437-1.543 c-0.47-1.481,0.754-3.19,2.735-3.819C127.388,66.569,129.375,67.259,129.845,68.74z"/><path fill="#F59689" d="M153.225,61.319c0.47,1.481-0.755,3.19-2.735,3.819c-1.98,0.629-3.967-0.062-4.437-1.543 c-0.47-1.481,0.755-3.191,2.735-3.819C150.769,59.147,152.755,59.838,153.225,61.319z"/><path fill="#3A312A" d="M139.036,79.028c-2.168,0-4.098-0.893-5.761-2.674c-0.565-0.605-0.533-1.555,0.072-2.12 c0.605-0.567,1.555-0.532,2.12,0.071c1.544,1.653,3.293,2.097,5.508,1.392c2.588-0.821,3.621-2.953,3.684-4.184 c0.042-0.828,0.741-1.46,1.575-1.422c0.827,0.042,1.464,0.747,1.421,1.574c-0.126,2.477-1.987,5.689-5.772,6.892 C140.893,78.871,139.943,79.028,139.036,79.028z"/><path fill="#87796F" d="M158.143,44.62c0.693,2.182,1.08,4.388,1.182,6.573c-6.294-0.898-12.511-2.479-18.481-4.602 c-1.751-0.621-3.493-1.294-5.195-2.052c-2.082-0.911-4.111-1.962-6.029-3.189c-4.177-2.678-7.722-6.152-10.981-9.908 c2.126-1.52,4.525-2.735,7.153-3.569c7.025-2.23,14.299-1.292,20.278,2.016C151.633,32.961,156.069,38.086,158.143,44.62z"/><path fill="#3A312A" d="M159.326,52.692c-0.07,0-0.141-0.005-0.212-0.015c-6.238-0.89-12.554-2.462-18.771-4.674 c-1.984-0.703-3.719-1.39-5.303-2.096c-2.253-0.985-4.351-2.096-6.227-3.295c-3.791-2.431-7.384-5.668-11.306-10.188 c-0.277-0.319-0.406-0.74-0.357-1.16c0.05-0.419,0.274-0.798,0.618-1.044c2.298-1.643,4.846-2.913,7.571-3.778 c7.211-2.289,14.832-1.531,21.458,2.133c6.12,3.381,10.658,8.919,12.776,15.591l0,0c0.72,2.269,1.141,4.608,1.251,6.956 c0.021,0.446-0.159,0.879-0.489,1.18C160.057,52.555,159.696,52.692,159.326,52.692z M120.906,31.738 c3.289,3.636,6.344,6.31,9.524,8.349c1.743,1.114,3.702,2.149,5.821,3.077c1.521,0.679,3.185,1.335,5.095,2.013 c5.41,1.925,10.891,3.349,16.323,4.243c-0.183-1.466-0.503-2.922-0.955-4.346l0,0c-1.885-5.938-5.922-10.865-11.368-13.874 c-5.898-3.262-12.68-3.934-19.099-1.898C124.359,29.9,122.569,30.718,120.906,31.738z"/><path fill="#87796F" d="M146.071,29.888c-3.003,5.191-6.52,10.058-10.421,14.65c-6.916,8.147-15.028,15.419-23.589,22.048 c-1.272-1.93-2.301-4.064-3.035-6.375c-3.469-10.93,0.741-22.461,9.613-28.769c2.126-1.52,4.525-2.735,7.153-3.569 C132.818,25.642,140.092,26.581,146.071,29.888z"/><path fill="#3A312A" d="M112.061,68.086c-0.081,0-0.164-0.007-0.246-0.021c-0.412-0.068-0.777-0.306-1.007-0.654 c-1.371-2.08-2.452-4.351-3.212-6.747c-3.596-11.328,0.493-23.563,10.174-30.445c2.295-1.641,4.843-2.911,7.568-3.776 c7.211-2.289,14.832-1.531,21.458,2.133c0.352,0.194,0.612,0.523,0.719,0.911c0.108,0.389,0.055,0.804-0.147,1.152 c-2.911,5.033-6.47,10.036-10.576,14.87c-6.372,7.507-14.161,14.789-23.813,22.263C112.715,67.977,112.392,68.086,112.061,68.086z M133.632,28.147c-2.469,0-4.954,0.383-7.386,1.154c-2.426,0.77-4.692,1.9-6.734,3.36c-8.617,6.126-12.255,17.014-9.056,27.094 c0.511,1.611,1.184,3.157,2.008,4.613c8.877-6.983,16.099-13.8,22.042-20.802c3.62-4.262,6.799-8.653,9.464-13.073 C140.691,28.937,137.178,28.147,133.632,28.147z"/></svg>