<svg xmlns="http://www.w3.org/2000/svg"  viewBox="0 0 256 256" width="50px" height="50px" fill-rule="evenodd" clip-rule="evenodd"><polygon fill="#87796F" points="32.85,223.536 16.75,223.536 16.75,235.49 239.25,235.49 239.25,223.536 47.149,223.536"/><path fill="#3A312A" d="M239.25,236.99H16.75c-0.829,0-1.5-0.672-1.5-1.5v-11.954c0-0.828,0.671-1.5,1.5-1.5h16.1 c0.829,0,1.5,0.672,1.5,1.5c0,0.828-0.671,1.5-1.5,1.5h-14.6v8.954h219.5v-8.954H47.149c-0.829,0-1.5-0.672-1.5-1.5 c0-0.828,0.671-1.5,1.5-1.5H239.25c0.829,0,1.5,0.672,1.5,1.5v11.954C240.75,236.318,240.079,236.99,239.25,236.99z"/><rect width="15" height="8.95" x="223.25" y="225.039" fill="#695B51"/><path fill="#D5DC57" d="M58.069,31.347c0,0,3.401,12.659,13.192,13.246c0,0-13.071,4.525-13.291,14.202 c0,0-2.573-13.572-12.896-14.059C45.074,44.736,57.097,42.91,58.069,31.347z"/><path fill="#3A312A" d="M57.969,60.294c-0.713,0-1.336-0.507-1.473-1.218c-0.023-0.124-2.488-12.417-11.494-12.842 c-0.77-0.036-1.387-0.65-1.427-1.42c-0.04-0.771,0.51-1.445,1.273-1.562c0.44-0.068,10.868-1.817,11.726-12.032 c0.061-0.726,0.634-1.301,1.359-1.367c0.724-0.055,1.393,0.401,1.583,1.103c0.031,0.116,3.251,11.625,11.833,12.14 c0.713,0.043,1.297,0.583,1.395,1.291c0.098,0.709-0.317,1.388-0.993,1.623c-0.121,0.042-12.089,4.311-12.284,12.819 c-0.018,0.767-0.61,1.396-1.375,1.46C58.053,60.292,58.011,60.294,57.969,60.294z M50.247,44.565 c3.868,1.967,6.214,5.74,7.568,8.869c2.024-4.018,5.928-6.781,8.927-8.42c-4.123-1.841-6.765-5.646-8.313-8.716 C56.639,40.654,53.17,43.161,50.247,44.565z"/><path fill="#D5DC57" d="M36.419,48.327c0,0,2.405,8.954,9.331,9.369c0,0-9.245,3.201-9.401,10.045c0,0-1.82-9.6-9.122-9.944 C27.227,57.798,35.732,56.506,36.419,48.327z"/><path fill="#3A312A" d="M36.348,69.242c-0.714,0-1.337-0.508-1.473-1.221c-0.016-0.082-1.7-8.442-7.719-8.726 c-0.771-0.036-1.388-0.65-1.428-1.42c-0.04-0.771,0.51-1.445,1.273-1.562c0.295-0.047,7.345-1.243,7.923-8.113 c0.061-0.726,0.635-1.303,1.361-1.368c0.729-0.061,1.393,0.4,1.582,1.104c0.033,0.12,2.238,7.919,7.972,8.263 c0.714,0.043,1.299,0.584,1.396,1.293c0.098,0.708-0.319,1.388-0.995,1.621c-0.08,0.028-8.262,2.953-8.392,8.663 c-0.018,0.768-0.611,1.397-1.376,1.461C36.431,69.24,36.389,69.242,36.348,69.242z M31.841,57.714 c2.101,1.332,3.514,3.391,4.436,5.275c1.374-2.229,3.506-3.868,5.35-4.968c-2.28-1.268-3.873-3.346-4.928-5.218 C35.528,55.087,33.691,56.674,31.841,57.714z"/><path fill="#D5DC57" d="M36.419,21.669c0,0,2.405,8.954,9.331,9.37c0,0-9.245,3.201-9.401,10.045c0,0-1.82-9.6-9.122-9.944 C27.227,31.14,35.732,29.849,36.419,21.669z"/><path fill="#3A312A" d="M36.348,42.584c-0.714,0-1.337-0.508-1.472-1.221c-0.016-0.082-1.7-8.441-7.719-8.726 c-0.77-0.036-1.387-0.65-1.427-1.421c-0.04-0.77,0.511-1.444,1.273-1.561c0.295-0.047,7.345-1.242,7.923-8.113 c0.061-0.726,0.635-1.303,1.361-1.368c0.729-0.071,1.393,0.4,1.582,1.103c0.033,0.12,2.238,7.919,7.972,8.264 c0.714,0.043,1.299,0.584,1.396,1.293c0.098,0.709-0.319,1.388-0.995,1.621c-0.08,0.028-8.262,2.953-8.392,8.662 c-0.018,0.768-0.611,1.397-1.376,1.461C36.431,42.582,36.389,42.584,36.348,42.584z M31.841,31.057 c2.101,1.331,3.514,3.39,4.436,5.274c1.374-2.229,3.507-3.867,5.351-4.967c-2.281-1.269-3.874-3.347-4.929-5.219 C35.528,28.429,33.691,30.017,31.841,31.057z"/><path fill="#E96C7A" d="M152.935,122.092c7.989,0.011,14.46,6.505,14.46,14.512v45.268c0,4.03-2.973,7.37-6.845,7.92H95.417 c-3.871-0.55-6.845-3.89-6.845-7.92V136.61c0-8.005,6.468-14.499,14.455-14.512l14.759-0.025v-8.08c0-0.01,0.01-0.02,0.01-0.03 c0.01,0,0.02-0.01,0.02-0.01h20.813v8.12L152.935,122.092z"/><path fill="#3A312A" d="M160.55,191.292H95.417c-0.071,0-0.141-0.005-0.211-0.015c-4.637-0.659-8.134-4.702-8.134-9.405v-45.263 c0-8.814,7.156-15.997,15.953-16.012l13.262-0.022v-6.583c0-0.15,0.025-0.306,0.07-0.453c0.123-0.419,0.423-0.762,0.815-0.941 c0.2-0.095,0.419-0.146,0.645-0.146h20.814c0.829,0,1.5,0.672,1.5,1.5v6.622l12.808,0.018c8.799,0.012,15.958,7.195,15.958,16.013 v45.268c0,4.703-3.497,8.746-8.134,9.405C160.691,191.287,160.621,191.292,160.55,191.292z M95.528,188.292h64.911 c3.117-0.493,5.456-3.235,5.456-6.42v-45.268c0-7.166-5.814-13.003-12.961-13.013l0,0l-14.306-0.019 c-0.828-0.001-1.498-0.673-1.498-1.5v-6.62h-17.843v6.62c0,0.827-0.67,1.499-1.497,1.5l-14.759,0.025 c-7.145,0.013-12.958,5.85-12.958,13.012v45.263C90.072,185.057,92.411,187.799,95.528,188.292z"/><path fill="#87796F" d="M107.44,189.791H79.264c-0.378,0-0.749,0.029-1.121,0.056l-0.234-0.055 c-0.004-0.001-0.007-0.001-0.011-0.001c-4.646,0.001-8.856,1.888-11.897,4.936c-3.046,3.053-4.928,7.25-4.937,11.905 c-0.02,9.301,8.081,16.903,17.36,16.903h0.786c0.019,0.001,0.037,0.003,0.055,0.003h95.983c0.019,0,0.037-0.003,0.055-0.003h2.793 c9.296,0,16.841-7.55,16.841-16.866c0-4.671-1.883-8.881-4.938-11.942c-3.042-3.049-7.255-4.936-11.903-4.936l-0.712,0.168 c-0.7-0.099-1.409-0.168-2.137-0.168h-53.795H107.44z"/><path fill="#3A312A" d="M175.248,225.039H79.265c-0.029,0-0.07-0.002-0.108-0.004h-0.733c-4.984,0-9.899-2.062-13.486-5.656 c-3.476-3.483-5.385-8.011-5.375-12.749c0.01-4.895,1.919-9.498,5.375-12.962c3.458-3.465,8.06-5.375,12.959-5.377h0 c0.12,0,0.248,0.016,0.367,0.044c0.357-0.025,0.676-0.044,1-0.044h95.983c0.645,0,1.307,0.046,2.063,0.145l0.44-0.104 c0.113-0.026,0.229-0.04,0.345-0.04c4.9,0,9.505,1.909,12.965,5.377c3.467,3.474,5.376,8.091,5.376,13.001 c0,10.127-8.228,18.366-18.341,18.366h-2.741C175.317,225.037,175.276,225.039,175.248,225.039z M79.314,222.039H175.2 c0.036-0.002,0.074-0.004,0.103-0.004h2.793c8.459,0,15.341-6.894,15.341-15.366c0-4.109-1.598-7.975-4.499-10.882 c-2.854-2.859-6.637-4.451-10.671-4.495l-0.538,0.127c-0.183,0.043-0.371,0.051-0.556,0.025c-0.734-0.105-1.346-0.153-1.925-0.153 H79.265c-0.317,0-0.629,0.024-0.941,0.048c-0.153,0.011-0.377,0.003-0.527-0.032l-0.063-0.015 c-4.035,0.044-7.819,1.637-10.671,4.495c-2.893,2.899-4.49,6.752-4.499,10.849c-0.008,3.937,1.589,7.709,4.498,10.624 c3.028,3.035,7.17,4.775,11.362,4.775h0.786C79.239,222.035,79.278,222.037,79.314,222.039z"/><path fill="#87796F" d="M120.682,205.555l-0.13-2.15l7.453-1.76l-50.097-11.85h-0.01c-4.65,0-8.86,1.89-11.893,4.93 c-3.053,3.06-4.929,7.25-4.939,11.91c-0.02,9.3,8.082,16.9,17.361,16.9h43.333l-0.01-0.14L120.682,205.555z"/><path fill="#3A312A" d="M121.76,225.034H78.427c-4.984,0-9.9-2.061-13.488-5.656c-3.475-3.482-5.383-8.01-5.373-12.746 c0.01-4.897,1.92-9.502,5.377-12.967c3.456-3.464,8.056-5.371,12.955-5.371c0.116,0,0.242,0.014,0.355,0.04l50.097,11.851 c0.677,0.16,1.155,0.765,1.155,1.46c0,0.696-0.479,1.3-1.155,1.46l-6.225,1.47l0.054,0.89c0,0.001,0,0.001,0,0.001l1.076,17.965 c0.029,0.415-0.116,0.823-0.399,1.128C122.573,224.861,122.176,225.034,121.76,225.034z M77.738,191.295 c-4.042,0.044-7.822,1.634-10.67,4.489c-2.894,2.899-4.492,6.754-4.501,10.854c-0.008,3.935,1.588,7.706,4.497,10.621 c3.029,3.035,7.17,4.775,11.364,4.775h41.739l-1.11-18.539c-0.045-0.729,0.442-1.383,1.152-1.551l1.276-0.301L77.738,191.295z"/><path fill="#FCE8CB" d="M121.75,223.395h-19.486c-4.43,0-8.012-3.59-8.012-8.03v-1.78c0-4.44,3.582-8.03,8.012-8.03h18.419 L121.75,223.395z"/><path fill="#3A312A" d="M121.75,224.895h-19.486c-5.245,0-9.512-4.275-9.512-9.53v-1.779c0-5.255,4.267-9.53,9.512-9.53h18.419 c0.793,0,1.45,0.618,1.498,1.41l1.067,17.84c0.024,0.413-0.122,0.817-0.406,1.118C122.559,224.724,122.164,224.895,121.75,224.895z M102.264,207.055c-3.59,0-6.512,2.93-6.512,6.53v1.779c0,3.6,2.921,6.53,6.512,6.53h17.894l-0.888-14.84H102.264z"/><path fill="#87796F" d="M136.861,199.544l-16.312,3.858l1.207,20.133h56.34c9.296,0,16.841-7.55,16.841-16.866 c0-4.671-1.883-8.881-4.937-11.942c-3.042-3.049-7.255-4.936-11.903-4.936l-26.826,6.345L136.861,199.544z"/><path fill="#3A312A" d="M178.096,225.036h-56.34c-0.793,0-1.45-0.618-1.497-1.41l-1.207-20.134 c-0.044-0.728,0.443-1.382,1.152-1.55l16.312-3.858c0.807-0.189,1.614,0.309,1.805,1.114c0.19,0.807-0.309,1.614-1.115,1.806 l-15.084,3.567l1.047,17.465h54.928c8.459,0,15.341-6.894,15.341-15.367c0-4.109-1.598-7.975-4.499-10.882 c-2.854-2.859-6.637-4.451-10.671-4.495l-26.651,6.304c-0.808,0.191-1.614-0.309-1.805-1.114c-0.19-0.807,0.309-1.615,1.115-1.806 l26.826-6.345c0.113-0.026,0.229-0.04,0.345-0.04c4.9,0,9.505,1.909,12.965,5.377c3.467,3.474,5.376,8.091,5.376,13.001 C196.437,216.797,188.209,225.036,178.096,225.036z"/><path fill="#E96C7A" d="M104.533,139.624v34.25h11.993v15.98c-9.828-0.01-20.903-0.04-21.113-0.06 c-3.871-0.55-6.845-3.89-6.845-7.92v-42.25H104.533z"/><path fill="#3A312A" d="M116.526,191.355c-0.111,0.019-20.812-0.024-21.259-0.067c-4.702-0.667-8.199-4.71-8.199-9.413v-42.25 c0-0.828,0.671-1.5,1.5-1.5c0.829,0,1.5,0.672,1.5,1.5v42.25c0,3.192,2.35,5.941,5.479,6.424 c0.952,0.018,10.143,0.043,19.479,0.055v-12.979h-10.493c-0.829,0-1.5-0.672-1.5-1.5v-34.25c0-0.828,0.671-1.5,1.5-1.5 s1.5,0.672,1.5,1.5v32.75h10.493c0.829,0,1.5,0.672,1.5,1.5v15.981c0,0.398-0.158,0.78-0.44,1.061 C117.305,191.196,116.923,191.355,116.526,191.355z"/><path fill="#FCE8CB" d="M131.492,181.864c0,4.42-3.572,8-7.982,8c-2.125,0-4.51-0.01-6.984-0.01v-15.98h6.984 c2.205,0,4.201,0.9,5.647,2.34C130.594,177.665,131.492,179.654,131.492,181.864z"/><path fill="#3A312A" d="M123.51,191.364l-6.984-0.01c-0.829,0-1.5-0.672-1.5-1.5v-15.981c0-0.828,0.671-1.5,1.5-1.5h6.984 c2.525,0,4.906,0.986,6.705,2.777c1.793,1.809,2.777,4.19,2.777,6.713C132.992,187.102,128.739,191.364,123.51,191.364z M118.026,188.356l5.484,0.008c3.574,0,6.482-2.916,6.482-6.5c0-1.727-0.675-3.357-1.9-4.593c-1.227-1.222-2.856-1.898-4.582-1.898 h-5.484V188.356z"/><path fill="#E96C7A" d="M151.431,139.624v34.25h-11.993v15.98c9.828-0.01,20.903-0.04,21.112-0.06 c3.871-0.55,6.845-3.89,6.845-7.92v-42.25H151.431z"/><path fill="#3A312A" d="M139.438,191.355c-0.398,0-0.779-0.158-1.06-0.439c-0.282-0.281-0.44-0.663-0.44-1.061v-15.981 c0-0.828,0.671-1.5,1.5-1.5h10.493v-32.75c0-0.828,0.671-1.5,1.5-1.5c0.829,0,1.5,0.672,1.5,1.5v34.25c0,0.828-0.671,1.5-1.5,1.5 h-10.493v12.979c9.336-0.012,18.526-0.037,19.478-0.055c3.129-0.483,5.479-3.231,5.479-6.424v-42.25c0-0.828,0.671-1.5,1.5-1.5 c0.829,0,1.5,0.672,1.5,1.5v42.25c0,4.703-3.497,8.746-8.134,9.405c-0.511,0.051-21.114,0.075-21.322,0.075 C139.439,191.355,139.438,191.355,139.438,191.355z"/><path fill="#FCE8CB" d="M124.472,181.864c0,4.42,3.572,8,7.982,8c2.125,0,4.51-0.01,6.984-0.01v-15.98h-6.984 c-2.205,0-4.201,0.9-5.647,2.34C125.37,177.665,124.472,179.654,124.472,181.864z"/><path fill="#3A312A" d="M132.454,191.364c-5.229,0-9.482-4.262-9.482-9.5c0-2.523,0.983-4.904,2.769-6.705 c1.806-1.799,4.188-2.785,6.713-2.785h6.984c0.829,0,1.5,0.672,1.5,1.5v15.981c0,0.828-0.671,1.5-1.5,1.5L132.454,191.364z M132.454,175.374c-1.726,0-3.356,0.676-4.589,1.903c-1.218,1.23-1.893,2.86-1.893,4.587c0,3.584,2.908,6.5,6.482,6.5l5.484-0.008 v-12.982H132.454z"/><ellipse cx="127.999" cy="35.08" fill="#87796F" rx="14.537" ry="14.57"/><path fill="#3A312A" d="M127.998,51.149c-8.843,0-16.037-7.209-16.037-16.069c0-8.861,7.194-16.07,16.037-16.07 c8.843,0,16.038,7.209,16.038,16.07C144.036,43.94,136.842,51.149,127.998,51.149z M127.998,22.01 c-7.188,0-13.037,5.863-13.037,13.07c0,7.206,5.849,13.069,13.037,13.069c7.189,0,13.038-5.863,13.038-13.069 C141.036,27.873,135.187,22.01,127.998,22.01z"/><path fill="#F6E2C6" fill-rule="evenodd" d="M106.399,81.303c0,3.555-2.875,6.436-6.421,6.436 c-3.546,0-6.421-2.881-6.421-6.436c0-3.554,2.875-6.435,6.421-6.435C103.524,74.867,106.399,77.749,106.399,81.303z" clip-rule="evenodd"/><path fill="#3A312A" d="M99.977,89.238c-4.368,0-7.921-3.56-7.921-7.936c0-4.376,3.554-7.935,7.921-7.935 c4.368,0,7.921,3.56,7.921,7.935C107.899,85.679,104.345,89.238,99.977,89.238z M99.977,76.367c-2.714,0-4.921,2.214-4.921,4.935 c0,2.722,2.208,4.936,4.921,4.936c2.714,0,4.921-2.214,4.921-4.936C104.899,78.581,102.691,76.367,99.977,76.367z"/><path fill="#F6E2C6" fill-rule="evenodd" d="M162.444,81.303c0,3.555-2.875,6.436-6.421,6.436 c-3.546,0-6.421-2.881-6.421-6.436c0-3.554,2.875-6.435,6.421-6.435C159.569,74.867,162.444,77.749,162.444,81.303z" clip-rule="evenodd"/><path fill="#3A312A" d="M156.022,89.238c-4.368,0-7.921-3.56-7.921-7.936c0-4.376,3.553-7.935,7.921-7.935 c4.368,0,7.921,3.56,7.921,7.935C163.943,85.679,160.39,89.238,156.022,89.238z M156.022,76.367c-2.713,0-4.921,2.214-4.921,4.935 c0,2.722,2.208,4.936,4.921,4.936c2.713,0,4.921-2.214,4.921-4.936C160.943,78.581,158.736,76.367,156.022,76.367z"/><path fill="#F6E2C6" d="M156.465,78.179c0,15.756-15.141,39.941-28.465,39.941c-12.719,0-28.465-24.185-28.465-39.941 c0-15.757,12.744-28.53,28.465-28.53C143.721,49.65,156.465,62.423,156.465,78.179z"/><path fill="#3A312A" d="M128,119.62c-6.416,0-13.792-5.361-20.237-14.71c-6.001-8.703-9.728-18.946-9.728-26.73 c0-16.559,13.442-30.03,29.965-30.03c16.523,0,29.965,13.472,29.965,30.03C157.965,94.919,142.181,119.62,128,119.62z M128,51.149 c-14.869,0-26.965,12.126-26.965,27.03c0,14.606,15.064,38.44,26.965,38.44c12.242,0,26.965-23.61,26.965-38.44 C154.965,63.275,142.869,51.149,128,51.149z"/><path fill="#3A312A" d="M120.729,77.857c0,1.538-1.244,2.785-2.778,2.785c-1.535,0-2.779-1.247-2.779-2.785 c0-1.538,1.244-2.784,2.779-2.784C119.485,75.072,120.729,76.319,120.729,77.857z"/><path fill="#3A312A" d="M140.828,77.857c0,1.538-1.244,2.785-2.779,2.785c-1.534,0-2.778-1.247-2.778-2.785 c0-1.538,1.244-2.784,2.778-2.784C139.584,75.072,140.828,76.319,140.828,77.857z"/><path fill="#F59689" d="M117.183,86.136c0,1.981-2.143,3.586-4.786,3.586c-2.643,0-4.786-1.605-4.786-3.586 c0-1.981,2.143-3.586,4.786-3.586C115.041,82.549,117.183,84.155,117.183,86.136z"/><path fill="#F59689" d="M148.389,86.136c0,1.981-2.143,3.586-4.786,3.586c-2.643,0-4.786-1.605-4.786-3.586 c0-1.981,2.143-3.586,4.786-3.586C146.246,82.549,148.389,84.155,148.389,86.136z"/><path fill="#3A312A" d="M128,102.297c-4.302,0-7.404-1.938-9.22-5.763c-0.355-0.748-0.037-1.644,0.711-1.998 c0.75-0.354,1.643-0.038,1.999,0.711c1.312,2.763,3.381,4.05,6.51,4.05c3.662,0,5.87-2.351,6.46-3.932 c0.29-0.776,1.157-1.168,1.93-0.88c0.776,0.29,1.17,1.154,0.88,1.931C136.212,99.248,132.859,102.297,128,102.297z"/><path fill="#87796F" d="M160.778,67.74c0,2.919-0.379,5.75-1.096,8.443c-7.286-3.519-14.216-7.838-20.637-12.721 c-1.884-1.43-3.738-2.919-5.509-4.498c-2.174-1.911-4.229-3.97-6.083-6.201c-4.034-4.865-6.996-10.455-9.501-16.276 c3.163-1.026,6.539-1.578,10.046-1.578c9.376,0,17.835,3.946,23.812,10.271C157.372,51.06,160.778,59,160.778,67.74z"/><path fill="#3A312A" d="M159.682,77.684c-0.223,0-0.446-0.05-0.652-0.149c-7.195-3.475-14.225-7.808-20.893-12.878 c-2.13-1.618-3.962-3.114-5.599-4.572c-2.341-2.058-4.443-4.2-6.239-6.361c-3.636-4.387-6.726-9.674-9.726-16.643 c-0.166-0.388-0.163-0.827,0.012-1.212c0.174-0.384,0.502-0.678,0.903-0.808c3.377-1.096,6.913-1.651,10.509-1.651 c9.514,0,18.358,3.814,24.902,10.74c6.047,6.395,9.378,14.773,9.378,23.591c0,2.999-0.386,5.969-1.146,8.829 c-0.115,0.433-0.417,0.791-0.824,0.978C160.109,77.638,159.895,77.684,159.682,77.684z M120.011,37.443 c2.669,5.938,5.421,10.532,8.597,14.363c1.695,2.039,3.688,4.069,5.919,6.03c1.585,1.413,3.357,2.859,5.426,4.431 c5.988,4.554,12.271,8.496,18.7,11.735c0.416-2.048,0.626-4.147,0.626-6.263c0-8.049-3.039-15.694-8.558-21.53 c-5.972-6.32-14.041-9.801-22.722-9.801C125.28,36.409,122.601,36.757,120.011,37.443z"/><path fill="#87796F" d="M151.81,45.18c-5.639,5.15-11.776,9.707-18.274,13.784c-11.521,7.233-24.156,12.941-37.087,17.694 c-0.8-2.836-1.226-5.827-1.226-8.918c0-14.621,9.543-27.01,22.728-31.253c3.163-1.026,6.539-1.578,10.046-1.578 C137.375,34.909,145.833,38.855,151.81,45.18z"/><path fill="#3A312A" d="M96.45,78.158c-0.234,0-0.468-0.055-0.682-0.164c-0.373-0.189-0.648-0.526-0.762-0.929 c-0.851-3.019-1.283-6.156-1.283-9.325c0-14.974,9.552-28.106,23.769-32.681c3.373-1.095,6.909-1.65,10.506-1.65 c9.514,0,18.358,3.814,24.902,10.74c0.276,0.292,0.423,0.684,0.409,1.086c-0.015,0.401-0.19,0.78-0.487,1.052 c-5.451,4.978-11.671,9.671-18.488,13.947c-10.592,6.65-22.815,12.483-37.366,17.832C96.8,78.128,96.625,78.158,96.45,78.158z M127.998,36.409c-3.282,0-6.506,0.506-9.583,1.505c-12.976,4.175-21.691,16.16-21.691,29.826c0,2.345,0.258,4.669,0.77,6.932 c13.669-5.117,25.212-10.679,35.246-16.978c6.186-3.88,11.863-8.107,16.898-12.576C143.79,39.49,136.165,36.409,127.998,36.409z"/></svg>