<svg xmlns="http://www.w3.org/2000/svg"  viewBox="0 0 256 256" width="50px" height="50px" fill-rule="evenodd" clip-rule="evenodd"><path fill="#3A312A" d="M154.925,240.804c-19.105,0-33.676-16.462-43.307-48.93c-8.332-28.092-12.736-68.19-12.736-115.961 c0-0.828,0.672-1.5,1.5-1.5c0.828,0,1.5,0.672,1.5,1.5c0,47.485,4.361,87.289,12.612,115.108 c9.208,31.042,22.811,46.782,40.431,46.782s31.224-15.74,40.431-46.782c8.252-27.819,12.613-67.623,12.613-115.108 c0-0.828,0.672-1.5,1.5-1.5c0.828,0,1.5,0.672,1.5,1.5c0,47.771-4.404,87.869-12.736,115.961 C188.602,224.342,174.031,240.804,154.925,240.804z"/><path fill="#FAE6CA" d="M139.763,193.817v21.391c0,4.181,3.389,7.57,7.57,7.57c4.181,0,7.57-3.389,7.57-7.57v-65.566h-15.14v29.208 V193.817z"/><path fill="#3A312A" d="M147.333,224.277c-5.001,0-9.07-4.069-9.07-9.07v-21.39c0-0.828,0.672-1.5,1.5-1.5 c0.828,0,1.5,0.672,1.5,1.5v21.39c0,3.348,2.723,6.07,6.07,6.07c3.348,0,6.07-2.723,6.07-6.07v-64.066h-12.141v27.709 c0,0.828-0.672,1.5-1.5,1.5c-0.828,0-1.5-0.672-1.5-1.5v-29.209c0-0.828,0.672-1.5,1.5-1.5h15.141c0.828,0,1.5,0.672,1.5,1.5 v65.566C156.403,220.208,152.334,224.277,147.333,224.277z"/><path fill="#FAE6CA" d="M170.044,149.641v65.567c0,4.181-3.389,7.57-7.57,7.57h0c-4.181,0-7.57-3.389-7.57-7.57v-65.566H170.044z"/><path fill="#3A312A" d="M162.474,224.278c-5.001,0-9.07-4.069-9.07-9.07v-65.567c0-0.828,0.672-1.5,1.5-1.5h15.141 c0.828,0,1.5,0.672,1.5,1.5v65.567C171.544,220.209,167.475,224.278,162.474,224.278z M156.403,151.141v64.067 c0,3.348,2.723,6.07,6.07,6.07c3.348,0,6.07-2.723,6.07-6.07v-64.067H156.403z"/><path fill="#F7E3C7" d="M211.797,70.503c-1.669-2.921-5.387-3.932-8.298-2.263l-33.044,18.887h-7.594V74.429h-15.873v12.698h-7.593 L106.359,68.24c-2.921-1.669-6.638-0.658-8.307,2.263c-1.669,2.911-0.649,6.629,2.262,8.298l35.344,20.175v4.037 c0.06-0.001,0.115-0.009,0.176-0.009c9.662,0,9.646,14.991,0,14.991c-0.061,0-0.116-0.007-0.176-0.009v21.497h38.487V99.041 l0.009-0.009l10.111-5.782l12.462-7.126l12.808-7.323C212.455,77.132,213.466,73.414,211.797,70.503z"/><path fill="#3A312A" d="M174.145,140.984h-38.487c-0.828,0-1.5-0.672-1.5-1.5v-21.498c0-0.406,0.165-0.795,0.457-1.077 c0.29-0.282,0.662-0.438,1.092-0.422c0.018,0,0.136,0.013,0.131,0.007c3.963,0,5.737-3.013,5.737-5.999 c0-2.981-1.775-5.99-5.741-5.99c-0.018,0.001-0.109,0.008-0.127,0.008c-0.429,0.033-0.802-0.14-1.092-0.422 c-0.292-0.282-0.457-0.671-0.457-1.077v-3.166L99.571,80.104c-1.759-1.008-3.02-2.638-3.553-4.591 c-0.535-1.956-0.275-4,0.731-5.756c1.005-1.759,2.637-3.021,4.592-3.554c1.956-0.534,4-0.272,5.762,0.734l32.69,18.689h5.694 V74.429c0-0.828,0.672-1.5,1.5-1.5h15.873c0.828,0,1.5,0.672,1.5,1.5v11.198h5.695l32.699-18.689 c1.754-1.005,3.798-1.267,5.75-0.735c1.956,0.532,3.588,1.795,4.595,3.557c1.005,1.755,1.267,3.797,0.735,5.75 c-0.532,1.956-1.795,3.588-3.557,4.595l-34.634,19.803v39.578C175.645,140.313,174.973,140.984,174.145,140.984z M137.157,137.984 h35.487V99.041c0-0.37,0.137-0.728,0.385-1.004c0.107-0.118,0.241-0.229,0.38-0.308l35.381-20.23 c1.065-0.609,1.828-1.596,2.15-2.777c0.32-1.18,0.162-2.413-0.445-3.473c0-0.001,0-0.001-0.001-0.002 c-0.608-1.064-1.595-1.828-2.776-2.15c-1.181-0.32-2.413-0.163-3.473,0.445L171.198,88.43c-0.227,0.129-0.483,0.197-0.744,0.197 h-7.594c-0.828,0-1.5-0.672-1.5-1.5V75.929h-12.873v11.198c0,0.828-0.672,1.5-1.5,1.5h-7.593c-0.261,0-0.518-0.068-0.744-0.198 l-33.035-18.887c-1.065-0.607-2.303-0.768-3.485-0.444c-1.182,0.322-2.168,1.085-2.775,2.149c-0.608,1.061-0.765,2.294-0.442,3.476 c0.323,1.182,1.086,2.168,2.148,2.776l35.341,20.175c0.467,0.267,0.756,0.765,0.756,1.303v2.612 c4.875,0.639,7.417,4.796,7.417,8.906c0,4.115-2.542,8.276-7.417,8.915V137.984z"/><path fill="#EA6D7A" d="M135.66,117.987v4.941h38.48v-23.89l0.01-0.01l-3.7-11.9h-6.08v9.539c0,1.663-1.348,3.011-3.011,3.011 h-12.917c-1.663,0-3.012-1.348-3.012-3.011v-9.499l-0.04-0.04h-6l-3.73,11.85v4.034V117.987z"/><path fill="#3A312A" d="M174.14,124.429H135.66c-0.828,0-1.5-0.672-1.5-1.5v-4.941c0-0.828,0.672-1.5,1.5-1.5 c0.828,0,1.5,0.672,1.5,1.5v3.441h35.479V99.222l-3.294-10.593h-3.476v8.039c0,2.487-2.024,4.511-4.512,4.511h-12.917 c-2.487,0-4.512-2.023-4.512-4.511v-8.039h-3.439l-3.33,10.58v3.804c0,0.828-0.672,1.5-1.5,1.5c-0.828,0-1.5-0.672-1.5-1.5v-4.034 c0-0.152,0.023-0.305,0.069-0.45l3.729-11.85c0.196-0.625,0.775-1.05,1.431-1.05h6c0.397,0,0.779,0.158,1.061,0.439 c0.281,0.281,0.48,0.703,0.48,1.101v9.499c0,0.833,0.678,1.511,1.512,1.511h12.917c0.834,0,1.512-0.678,1.512-1.511v-9.539 c0-0.828,0.672-1.5,1.5-1.5h6.08c0.657,0,1.237,0.428,1.433,1.055l3.7,11.899c0.064,0.205,0.081,0.418,0.057,0.625v23.721 C175.64,123.757,174.968,124.429,174.14,124.429z"/><rect width="19.242" height="21.445" x="135.661" y="134.151" fill="#87796F"/><path fill="#3A312A" d="M154.903,157.096h-19.242c-0.828,0-1.5-0.672-1.5-1.5V134.15c0-0.828,0.672-1.5,1.5-1.5h19.242 c0.828,0,1.5,0.672,1.5,1.5v21.445C156.403,156.424,155.731,157.096,154.903,157.096z M137.161,154.096h16.242V135.65h-16.242 V154.096z"/><rect width="19.242" height="21.445" x="154.903" y="134.151" fill="#87796F"/><path fill="#3A312A" d="M174.145,157.096h-19.242c-0.828,0-1.5-0.672-1.5-1.5V134.15c0-0.828,0.672-1.5,1.5-1.5h19.242 c0.828,0,1.5,0.672,1.5,1.5v21.445C175.645,156.424,174.974,157.096,174.145,157.096z M156.403,154.096h16.242V135.65h-16.242 V154.096z"/><path fill="#D6DF58" d="M74.31,26.373c0,0,3.408,12.659,13.222,13.246c0,0-13.1,4.525-13.321,14.202 c0,0-2.579-13.572-12.925-14.059C61.285,39.763,73.336,37.937,74.31,26.373z"/><path fill="#3A312A" d="M74.21,55.321c-0.713,0-1.335-0.506-1.473-1.217c-0.023-0.125-2.494-12.419-11.522-12.844 c-0.771-0.036-1.388-0.65-1.428-1.421c-0.04-0.77,0.511-1.444,1.273-1.561c0.442-0.068,10.895-1.817,11.754-12.032 c0.062-0.726,0.635-1.301,1.359-1.367c0.737-0.061,1.394,0.399,1.584,1.101c0.031,0.116,3.259,11.626,11.863,12.141 c0.714,0.042,1.297,0.583,1.396,1.292c0.098,0.708-0.318,1.388-0.994,1.622c-0.121,0.042-12.118,4.311-12.312,12.82 c-0.018,0.767-0.61,1.396-1.375,1.46C74.294,55.319,74.252,55.321,74.21,55.321z M66.469,39.592 c3.878,1.969,6.229,5.746,7.587,8.876c2.026-4.021,5.941-6.787,8.948-8.427c-4.134-1.843-6.783-5.651-8.334-8.723 C72.877,35.679,69.399,38.187,66.469,39.592z"/><path fill="#D6DF58" d="M52.611,43.354c0,0,2.411,8.954,9.352,9.369c0,0-9.266,3.201-9.422,10.045c0,0-1.824-9.6-9.142-9.944 C43.399,52.824,51.922,51.533,52.611,43.354z"/><path fill="#3A312A" d="M52.54,64.269c-0.714,0-1.337-0.507-1.473-1.22c-0.016-0.082-1.704-8.442-7.739-8.727 c-0.771-0.036-1.388-0.65-1.428-1.421c-0.04-0.77,0.511-1.444,1.273-1.561c0.296-0.047,7.363-1.242,7.942-8.113 c0.062-0.726,0.636-1.303,1.361-1.368c0.719-0.064,1.392,0.399,1.582,1.101l0,0c0.021,0.079,2.226,7.92,7.993,8.265 c0.714,0.042,1.299,0.584,1.396,1.293c0.097,0.709-0.32,1.388-0.996,1.622c-0.081,0.028-8.282,2.953-8.412,8.662 c-0.018,0.768-0.611,1.398-1.376,1.461C52.623,64.267,52.581,64.269,52.54,64.269z M48.02,52.741 c2.107,1.332,3.523,3.395,4.447,5.279c1.376-2.232,3.516-3.872,5.365-4.973c-2.287-1.269-3.885-3.35-4.941-5.224 C51.718,50.111,49.876,51.7,48.02,52.741z"/><path fill="#D6DF58" d="M52.611,16.696c0,0,2.411,8.954,9.352,9.369c0,0-9.266,3.201-9.422,10.045c0,0-1.824-9.6-9.142-9.944 C43.399,26.167,51.922,24.875,52.611,16.696z"/><path fill="#3A312A" d="M52.54,37.611c-0.714,0-1.337-0.507-1.473-1.22c-0.016-0.082-1.704-8.442-7.739-8.727 c-0.771-0.036-1.388-0.65-1.428-1.421c-0.04-0.77,0.511-1.444,1.273-1.561c0.296-0.047,7.363-1.243,7.942-8.113 c0.062-0.726,0.636-1.303,1.361-1.368c0.719-0.063,1.392,0.399,1.582,1.102l0,0c0.021,0.079,2.226,7.92,7.993,8.265 c0.714,0.042,1.299,0.584,1.396,1.293c0.097,0.709-0.32,1.388-0.996,1.622c-0.081,0.028-8.282,2.953-8.412,8.662 c-0.018,0.768-0.611,1.397-1.376,1.461C52.623,37.609,52.581,37.611,52.54,37.611z M48.02,26.083 c2.107,1.333,3.523,3.395,4.447,5.28c1.376-2.232,3.516-3.872,5.365-4.973c-2.287-1.268-3.885-3.35-4.941-5.224 C51.718,23.453,49.876,25.042,48.02,26.083z"/><circle cx="139.76" cy="30.928" r="12.666" fill="#87796F"/><path fill="#3A312A" d="M139.761,45.095c-7.811,0-14.167-6.354-14.167-14.166s6.355-14.166,14.167-14.166 c7.812,0,14.166,6.355,14.166,14.166S147.572,45.095,139.761,45.095z M139.761,19.763c-6.157,0-11.167,5.009-11.167,11.166 s5.01,11.166,11.167,11.166c6.157,0,11.166-5.009,11.166-11.166S145.918,19.763,139.761,19.763z"/><ellipse cx="133.485" cy="56.107" fill="#F6E2C6" fill-rule="evenodd" clip-rule="evenodd" rx="4.921" ry="4.918"/><path fill="#3A312A" d="M133.485,62.525c-3.54,0-6.421-2.88-6.421-6.419c0-3.539,2.881-6.418,6.421-6.418 c3.54,0,6.421,2.879,6.421,6.418C139.906,59.646,137.025,62.525,133.485,62.525z M133.485,52.688c-1.887,0-3.421,1.533-3.421,3.418 c0,1.885,1.534,3.419,3.421,3.419c1.887,0,3.421-1.534,3.421-3.419C136.906,54.222,135.372,52.688,133.485,52.688z"/><path fill="#F6E2C6" fill-rule="evenodd" d="M181.355,56.107c0,2.716-2.203,4.918-4.921,4.918 c-2.718,0-4.921-2.202-4.921-4.918s2.203-4.918,4.921-4.918C179.152,51.189,181.355,53.391,181.355,56.107z" clip-rule="evenodd"/><path fill="#3A312A" d="M176.435,62.525c-3.54,0-6.421-2.88-6.421-6.419c0-3.539,2.881-6.418,6.421-6.418 c3.54,0,6.421,2.879,6.421,6.418C182.855,59.646,179.975,62.525,176.435,62.525z M176.435,52.688c-1.887,0-3.421,1.533-3.421,3.418 c0,1.885,1.534,3.419,3.421,3.419s3.421-1.534,3.421-3.419C179.855,54.222,178.321,52.688,176.435,52.688z"/><path fill="#F6E2C6" d="M176.774,53.72c0,12.041-11.603,30.524-21.814,30.524c-9.747,0-21.814-18.482-21.814-30.524 s9.767-21.803,21.814-21.803C167.008,31.917,176.774,41.678,176.774,53.72z"/><path fill="#3A312A" d="M154.96,85.743c-10.809,0-23.314-19.379-23.314-32.024c0-12.85,10.458-23.303,23.314-23.303 c12.855,0,23.313,10.453,23.313,23.303C178.273,66.655,165.993,85.743,154.96,85.743z M154.96,33.417 c-11.201,0-20.314,9.107-20.314,20.303c0,11.935,11.96,29.024,20.314,29.024c9.222,0,20.313-17.826,20.313-29.024 C175.273,42.524,166.161,33.417,154.96,33.417z"/><path fill="#3A312A" d="M149.387,53.473c0,1.175-0.953,2.128-2.129,2.128c-1.176,0-2.129-0.953-2.129-2.128 s0.953-2.128,2.129-2.128C148.434,51.345,149.387,52.298,149.387,53.473z"/><path fill="#3A312A" d="M164.791,53.473c0,1.175-0.953,2.128-2.129,2.128c-1.176,0-2.129-0.953-2.129-2.128 s0.953-2.128,2.129-2.128C163.837,51.345,164.791,52.298,164.791,53.473z"/><path fill="#F59689" d="M146.671,59.8c0,1.514-1.642,2.74-3.668,2.74c-2.026,0-3.668-1.227-3.668-2.74 c0-1.514,1.642-2.74,3.668-2.74C145.029,57.06,146.671,58.286,146.671,59.8z"/><ellipse cx="166.917" cy="59.8" fill="#F59689" rx="3.668" ry="2.74"/><path fill="#3A312A" d="M154.96,72.904c-3.395,0-5.947-1.593-7.382-4.605c-0.355-0.748-0.038-1.642,0.71-1.999 c0.748-0.354,1.643-0.038,1.999,0.71c0.94,1.975,2.425,2.894,4.673,2.894c2.629,0,4.205-1.66,4.622-2.775 c0.29-0.777,1.155-1.169,1.931-0.88c0.776,0.291,1.17,1.155,0.88,1.931C161.54,70.455,158.852,72.904,154.96,72.904z"/><path fill="#87796F" d="M180.096,45.729c0,2.234-0.291,4.399-0.84,6.46c-5.587-2.692-10.902-5.997-15.826-9.734 c-1.445-1.094-2.866-2.234-4.225-3.441c-1.667-1.462-3.243-3.037-4.665-4.744c-3.093-3.723-5.365-8-7.286-12.454 c2.426-0.785,5.015-1.208,7.704-1.208c7.191,0,13.677,3.019,18.261,7.859C177.484,32.966,180.096,39.041,180.096,45.729z"/><path fill="#3A312A" d="M179.255,53.689c-0.223,0-0.445-0.05-0.651-0.148c-5.539-2.67-10.949-5.997-16.08-9.891 c-1.639-1.241-3.051-2.392-4.315-3.516c-1.807-1.585-3.432-3.237-4.82-4.905c-2.811-3.383-5.198-7.456-7.511-12.82 c-0.168-0.388-0.164-0.828,0.011-1.213c0.174-0.385,0.503-0.678,0.904-0.808c2.624-0.85,5.371-1.28,8.166-1.28 c7.392,0,14.264,2.957,19.35,8.327c4.7,4.958,7.288,11.454,7.288,18.293c0,2.325-0.3,4.63-0.892,6.848 c-0.115,0.432-0.417,0.79-0.823,0.977C179.683,53.644,179.469,53.689,179.255,53.689z M149.325,22.785 c1.979,4.329,4.021,7.702,6.368,10.525c1.288,1.547,2.803,3.087,4.501,4.575c1.213,1.079,2.564,2.18,4.141,3.373 c4.447,3.375,9.107,6.309,13.876,8.739c0.256-1.4,0.385-2.83,0.385-4.27c0-6.067-2.296-11.831-6.466-16.229 c-4.514-4.767-10.612-7.391-17.172-7.391C153.044,22.108,151.156,22.336,149.325,22.785z"/><path fill="#87796F" d="M173.218,28.467c-4.324,3.941-9.03,7.428-14.013,10.547c-8.835,5.534-18.524,9.902-28.44,13.539 c-0.613-2.17-0.94-4.459-0.94-6.824c0-11.187,7.318-20.667,17.429-23.913c2.426-0.785,5.015-1.208,7.704-1.208 C162.148,20.608,168.635,23.627,173.218,28.467z"/><path fill="#3A312A" d="M130.765,54.053c-0.234,0-0.469-0.055-0.682-0.164c-0.372-0.189-0.648-0.526-0.762-0.928 c-0.662-2.342-0.997-4.775-0.997-7.232c0-11.61,7.423-21.795,18.471-25.341c2.621-0.849,5.368-1.279,8.163-1.279 c7.392,0,14.264,2.957,19.35,8.327c0.277,0.292,0.425,0.684,0.41,1.086c-0.015,0.403-0.191,0.782-0.488,1.054 c-4.195,3.823-8.982,7.427-14.229,10.71c-8.145,5.102-17.539,9.575-28.72,13.676C131.114,54.022,130.939,54.053,130.765,54.053z M154.958,22.108c-2.48,0-4.917,0.382-7.242,1.134c-9.806,3.148-16.392,12.185-16.392,22.486c0,1.632,0.166,3.251,0.496,4.832 c10.293-3.867,19.005-8.067,26.589-12.818c4.608-2.885,8.849-6.019,12.623-9.332C166.65,24.335,161,22.108,154.958,22.108z"/><path fill="#EA6D7A" d="M129.476,37.401c-1.316,0-2.382,1.067-2.382,2.382v3.028c0,1.316,1.067,2.382,2.382,2.382h50.883 c1.316,0,2.382-1.067,2.382-2.382v-3.028c0-1.316-1.067-2.382-2.382-2.382H129.476z"/><path fill="#3A312A" d="M180.359,46.694h-50.884c-2.141,0-3.883-1.742-3.883-3.883v-3.027c0-2.141,1.742-3.883,3.883-3.883h50.884 c2.141,0,3.882,1.742,3.882,3.883v3.027C184.241,44.952,182.5,46.694,180.359,46.694z M129.476,38.901 c-0.486,0-0.883,0.396-0.883,0.883v3.027c0,0.486,0.396,0.883,0.883,0.883h50.884c0.486,0,0.882-0.396,0.882-0.883v-3.027 c0-0.486-0.395-0.883-0.882-0.883H129.476z"/><rect width="17" height="8.22" x="155.64" y="124.43" fill="#DECAAD"/><path fill="#D34E5C" d="M172.64,99.22v22.21h-17v-20.25h5.72c2.49,0,4.51-2.02,4.51-4.51v-8.04h3.48L172.64,99.22z"/><polygon fill="#695B51" points="172.645,154.096 172.645,135.65 156.403,135.65 156.403,149.641 156.403,151.141 156.403,154.096"/></svg>