<svg xmlns="http://www.w3.org/2000/svg"  viewBox="0 0 512 512" width="50px" height="50px"><polygon fill="#fdc9a6" points="144 352 136 376 64 376 64 352 96 344 120 328 144 352"/><path fill="#0a6fa2" d="M352,376H296l-48-64-32-48-24,40-48,48-24-24L189.7,230.427A34.451,34.451,0,0,1,217.73,216h0a34.452,34.452,0,0,1,24.361,10.091L312,296l16,16a70.6,70.6,0,0,1,19.72,38.32Z"/><polygon fill="#fdc9a6" points="416 144 392 120 384 144 392 164 392 184 416 184 416 144"/><path fill="#2cbff4" d="M352,376l72.778-86.01A157.42,157.42,0,0,0,437.932,272l-36.605-61.9-29.119,4.16a23.535,23.535,0,0,0-17.723,12.774h0A23.541,23.541,0,0,0,352,237.556V272l-24,40h0a70.6,70.6,0,0,1,19.72,38.32L352,376"/><rect width="464" height="32" x="24" y="376" fill="#ff6268" rx="16"/><path fill="#55300b" d="M416,104a25.887,25.887,0,0,0-23.155,14.311L392,120l24,24,8-40Z"/><path fill="#fbb540" d="M432,352a8,8,0,0,1-6.07-13.206l8-9.334a8,8,0,1,1,12.148,10.413l-8,9.333A7.982,7.982,0,0,1,432,352Z"/><path fill="#fbb540" d="M456,324a8,8,0,0,1-6.07-13.207l24-28a8,8,0,0,1,12.148,10.414l-24,28A7.984,7.984,0,0,1,456,324Z"/><path fill="#fdc9a6" d="M437.932,272a157.29,157.29,0,0,0,11.351-21.662l7.269-16.961a56.121,56.121,0,0,0,2.862-35.72L448,152l-3.5-11.832,16.457,16.153L472,160l8-8V128l-16-8-19.244-19.244A16.24,16.24,0,0,0,433.273,96h-1.026A16.247,16.247,0,0,0,416,112.247V208l-14.673,2.1L400,216l-4.834,19.337a29.51,29.51,0,0,0,4.074,23.524h0A29.51,29.51,0,0,0,423.792,272H438"/><polygon fill="#f6bb92" points="416 184 408.107 184 408.107 136.107 416 144 416 184"/></svg>