<svg xmlns="http://www.w3.org/2000/svg"  viewBox="0 0 256 256" width="50px" height="50px"><rect width="15" height="8.95" x="223" y="201.284" fill="#695B51"/><polygon fill="#87796F" points="55.506,199.781 16.5,199.781 16.5,211.736 239.5,211.736 239.5,199.781 69.827,199.781"/><path fill="#3A312A" d="M239.5,213.235h-223c-0.828,0-1.5-0.672-1.5-1.5v-11.954c0-0.828,0.672-1.5,1.5-1.5h39.006 c0.828,0,1.5,0.672,1.5,1.5c0,0.828-0.672,1.5-1.5,1.5H18v8.954h220v-8.954H69.827c-0.828,0-1.5-0.672-1.5-1.5 c0-0.828,0.672-1.5,1.5-1.5H239.5c0.828,0,1.5,0.672,1.5,1.5v11.954C241,212.564,240.328,213.235,239.5,213.235z"/><rect width="15" height="8.95" x="223" y="201.284" fill="#695B51"/><path fill="#D7E057" d="M49.096,54.382c0,0,3.563,13.236,13.824,13.85c0,0-13.697,4.731-13.928,14.849 c0,0-2.696-14.19-13.514-14.699C35.478,68.381,48.077,66.472,49.096,54.382z"/><path fill="#3A312A" d="M48.991,84.58c-0.713,0-1.336-0.506-1.473-1.218c-0.025-0.13-2.617-13.036-12.111-13.483 c-0.771-0.036-1.388-0.65-1.428-1.421c-0.04-0.77,0.511-1.444,1.273-1.561c0.464-0.072,11.443-1.905,12.348-12.642 c0.062-0.726,0.635-1.301,1.359-1.367c0.742-0.059,1.394,0.399,1.584,1.102c0.033,0.122,3.419,12.202,12.466,12.744 c0.714,0.043,1.298,0.584,1.395,1.292c0.098,0.708-0.318,1.388-0.994,1.622c-0.127,0.045-12.716,4.522-12.919,13.467 c-0.018,0.767-0.61,1.396-1.375,1.46C49.075,84.578,49.033,84.58,48.991,84.58z M40.716,68.213 c2.715,1.351,5.047,3.702,6.884,6.976c0.473,0.842,0.876,1.68,1.217,2.474c2.115-4.325,6.337-7.276,9.524-8.997 c-4.439-1.923-7.253-6.023-8.875-9.278C47.585,64.088,43.83,66.75,40.716,68.213z"/><path fill="#D7E057" d="M26.409,72.136c0,0,2.521,9.362,9.778,9.796c0,0-9.688,3.347-9.851,10.503c0,0-1.907-10.037-9.558-10.397 C16.777,82.037,25.689,80.687,26.409,72.136z"/><path fill="#3A312A" d="M26.334,93.935c-0.714,0-1.337-0.508-1.473-1.22c-0.017-0.087-1.79-8.88-8.154-9.18 c-0.771-0.036-1.388-0.65-1.428-1.421c-0.04-0.77,0.511-1.444,1.273-1.561c0.312-0.049,7.752-1.306,8.361-8.544 c0.061-0.726,0.636-1.303,1.361-1.368c0.71-0.062,1.393,0.4,1.582,1.104c0.043,0.156,2.368,8.327,8.419,8.689 c0.714,0.043,1.299,0.584,1.396,1.293c0.097,0.709-0.32,1.389-0.996,1.622c-0.086,0.029-8.704,3.102-8.842,9.119 c-0.018,0.767-0.611,1.397-1.377,1.461C26.417,93.933,26.375,93.935,26.334,93.935z M21.476,81.947 c2.287,1.409,3.803,3.643,4.777,5.665c1.453-2.419,3.774-4.18,5.753-5.344c-2.481-1.338-4.191-3.596-5.307-5.604 C25.461,79.146,23.47,80.849,21.476,81.947z"/><path fill="#D7E057" d="M26.409,44.264c0,0,2.521,9.362,9.778,9.796c0,0-9.688,3.347-9.851,10.503c0,0-1.907-10.037-9.558-10.397 C16.777,54.166,25.689,52.816,26.409,44.264z"/><path fill="#3A312A" d="M26.334,66.063c-0.714,0-1.337-0.508-1.473-1.22c-0.017-0.087-1.79-8.88-8.154-9.18 c-0.771-0.036-1.388-0.65-1.428-1.421c-0.04-0.77,0.511-1.444,1.273-1.561c0.312-0.049,7.752-1.306,8.361-8.544 c0.061-0.726,0.636-1.303,1.361-1.368c0.71-0.067,1.393,0.4,1.582,1.104c0.043,0.156,2.368,8.327,8.419,8.689 c0.714,0.043,1.299,0.584,1.396,1.293c0.097,0.709-0.32,1.389-0.996,1.622c-0.086,0.029-8.704,3.102-8.842,9.119 c-0.018,0.767-0.611,1.397-1.377,1.461C26.417,66.062,26.375,66.063,26.334,66.063z M21.476,54.076 c2.287,1.409,3.803,3.644,4.777,5.665c1.453-2.419,3.774-4.18,5.753-5.344c-2.481-1.338-4.191-3.596-5.307-5.604 C25.461,51.274,23.47,52.978,21.476,54.076z"/><path fill="#F8E4C8" d="M187.824,137.328l-5.88-36.68c-0.004-0.026,0.013-0.052,0.039-0.058l12.29-2.826 c3.354-0.766,5.446-4.104,4.677-7.45c-0.77-3.345-4.109-5.438-7.463-4.672c0,0-18.47,4.128-18.934,4.233 c-5.364,1.224-4.845,5.505-4.005,10.99c0,0.002,0,0.003,0.001,0.005l3.551,67.403h-0.001c-0.881,0.298-21.027,7.11-34.682,11.727 c-5.885,1.99-9.539,8.145-7.976,14.157c0.015,0.056,0.03,0.113,0.045,0.169c0.898,3.261,3.955,5.458,7.337,5.458h11.983 c1.061,0,2.104-0.217,3.075-0.644c17.095-7.517,36.156-16.048,36.308-16.125c1.612-0.816,3.487-2.338,4.668-4.988 c1.116-2.504,0.734-5.111,0.531-5.997l-3.363-20.978L187.824,137.328z"/><path fill="#3A312A" d="M148.805,201.284h-11.982c-4.107,0-7.719-2.697-8.783-6.56l-0.042-0.157 c-1.74-6.696,2.189-13.706,8.939-15.988l33.605-11.362l-3.487-66.201c-0.795-5.19-1.657-11.046,5.164-12.603 c0.47-0.106,18.941-4.234,18.941-4.234c4.15-0.94,8.299,1.656,9.252,5.8c0.462,2.009,0.113,4.078-0.982,5.825 c-1.097,1.748-2.81,2.964-4.822,3.423l-10.968,2.522l5.667,35.342c0.131,0.817-0.426,1.587-1.244,1.719 c-0.813,0.126-1.588-0.426-1.719-1.244l-5.881-36.68c-0.125-0.783,0.42-1.587,1.195-1.759l12.279-2.824 c1.233-0.281,2.28-1.024,2.95-2.094c0.67-1.067,0.883-2.331,0.601-3.559c-0.583-2.535-3.129-4.121-5.667-3.546 c-0.007,0.002-18.475,4.13-18.939,4.234c-3.773,0.861-3.779,3.234-2.851,9.3c0.012,0.074,0.018,0.15,0.018,0.226l3.549,67.329 c0.035,0.672-0.381,1.285-1.018,1.5l-34.682,11.727c-5.267,1.781-8.344,7.21-7.005,12.36l0.037,0.14 c0.709,2.572,3.131,4.363,5.893,4.363h11.982c0.858,0,1.69-0.174,2.472-0.518c16.825-7.398,35.798-15.888,36.269-16.107 c1.188-0.603,2.872-1.845,3.941-4.243c1.004-2.25,0.541-4.602,0.439-5.051l-3.383-21.075c-0.131-0.817,0.426-1.587,1.244-1.719 c0.813-0.131,1.588,0.427,1.719,1.244l3.363,20.978c0.178,0.762,0.715,3.802-0.642,6.845c-1.429,3.203-3.704,4.876-5.361,5.715 c-0.257,0.131-19.646,8.802-36.382,16.16C151.319,201.024,150.082,201.284,148.805,201.284z"/><path fill="#87796F" d="M187.823,137.328l-5.004-31.218c-0.004-0.027-0.029-0.045-0.056-0.042l-13.811,1.598 c-0.027,0.003-0.046,0.026-0.045,0.053l3.191,60.512c0.001,0.023-0.013,0.043-0.034,0.051l-34.652,11.715 c-5.887,1.99-9.542,8.151-7.972,14.163c0.015,0.058,0.031,0.115,0.046,0.173c0.902,3.257,3.955,5.451,7.335,5.451h11.986 c1.061,0,2.104-0.217,3.075-0.645c17.095-7.517,36.157-16.047,36.308-16.126c1.613-0.819,3.485-2.339,4.669-4.988 c1.118-2.5,0.731-5.113,0.528-5.995l-3.363-20.978L187.823,137.328z"/><path fill="#3A312A" d="M148.807,201.284H136.82c-4.102,0-7.714-2.694-8.78-6.551l-0.055-0.203 c-1.738-6.658,2.189-13.67,8.945-15.954l33.612-11.363l-3.134-59.415c-0.042-0.796,0.591-1.538,1.383-1.623l13.798-1.597 c0.812-0.082,1.561,0.483,1.704,1.259l5.011,31.254c0.131,0.818-0.426,1.587-1.244,1.719c-0.816,0.126-1.588-0.426-1.719-1.244 l-4.784-29.849L170.477,109l3.12,59.152c0.034,0.659-0.4,1.314-1.02,1.54l-34.685,11.726c-5.271,1.782-8.346,7.213-7.001,12.364 l0.041,0.152c0.708,2.561,3.13,4.35,5.889,4.35h11.986c0.858,0,1.691-0.174,2.472-0.518c17.182-7.556,35.842-15.908,36.264-16.105 c1.191-0.606,2.874-1.85,3.947-4.248c1.002-2.241,0.538-4.598,0.436-5.048l-3.383-21.075c-0.131-0.817,0.426-1.587,1.244-1.719 c0.813-0.131,1.588,0.427,1.719,1.244l3.363,20.978c0.178,0.764,0.717,3.809-0.641,6.845c-1.431,3.199-3.704,4.873-5.358,5.714 c-0.256,0.134-20.117,9.009-36.384,16.161C151.321,201.024,150.084,201.284,148.807,201.284z"/><path fill="#E66B7A" d="M151.391,173.946l-28.517-26.451c-5.835-5.413-14.782-5.364-20.556-0.104 c-6.704,6.113-6.39,16.554,0.265,22.727l28.144,26.105L151.391,173.946z"/><path fill="#3A312A" d="M130.727,197.724c-0.378,0-0.742-0.143-1.02-0.4l-28.144-26.105c-3.595-3.334-5.645-8.01-5.624-12.828 c0.02-4.669,1.927-8.969,5.368-12.106c6.357-5.79,16.277-5.741,22.587,0.112l28.518,26.451c0.291,0.271,0.464,0.646,0.479,1.043 c0.015,0.397-0.129,0.785-0.399,1.077l-20.664,22.277c-0.271,0.291-0.646,0.464-1.043,0.479 C130.765,197.724,130.746,197.724,130.727,197.724z M112.534,144.966c-3.31,0-6.618,1.177-9.206,3.534 c-2.813,2.566-4.373,6.083-4.389,9.902c-0.018,3.982,1.683,7.851,4.665,10.616l27.043,25.085l18.624-20.077l-27.418-25.432 C119.248,146.177,115.891,144.966,112.534,144.966z"/><path fill="#87796F" d="M91.739,109.149c9.007,7.878,52.879,28.482,69.531,9.445c5.35-6.116-16.018,6.345-50.157-31.594 c-7.938-8.822-20.645-9.307-25.995-3.19C79.768,89.926,82.733,101.271,91.739,109.149z"/><path fill="#3A312A" d="M140.789,127.889c-19.937,0-43.994-12.324-50.037-17.61c-9.615-8.409-12.648-20.726-6.763-27.455 c2.531-2.894,6.627-4.572,11.237-4.604c0.046-0.001,0.093-0.001,0.139-0.001c6.18,0,12.474,2.9,16.863,7.779 c23.192,25.774,40.435,27.917,46.925,28.723c2.37,0.295,3.801,0.473,4.308,1.802c0.49,1.287-0.52,2.44-1.062,3.061 C157.112,125.627,149.327,127.889,140.789,127.889z M95.367,81.218c-0.04,0-0.079,0-0.119,0.001 c-3.753,0.026-7.034,1.331-9.001,3.579c-4.797,5.484-1.89,15.902,6.479,23.223c9.153,8.006,51.471,27.206,67.202,9.825 c-0.361-0.051-0.764-0.101-1.145-0.148c-6.795-0.845-24.843-3.087-48.785-29.694C106.17,83.749,100.708,81.218,95.367,81.218z"/><ellipse cx="82.051" cy="126.38" fill="#F7E3C7" rx="20.797" ry="29.324" transform="rotate(-38.761 82.045 126.373)"/><path fill="#3A312A" d="M90.029,154.206c-2.197,0-4.503-0.333-6.871-1.008c-6.827-1.942-13.394-6.509-18.491-12.855 c-10.642-13.253-11.501-30.298-1.916-37.997c4.721-3.792,11.183-4.78,18.192-2.785c6.827,1.943,13.395,6.509,18.492,12.856 c10.642,13.252,11.501,30.297,1.916,37.997C98.226,152.924,94.336,154.206,90.029,154.206z M74.09,101.557 c-3.633,0-6.881,1.057-9.46,3.129c-8.296,6.662-7.229,21.815,2.377,33.778l0,0c4.711,5.867,10.738,10.075,16.973,11.85 c6.048,1.721,11.552,0.927,15.493-2.239c8.296-6.663,7.229-21.816-2.377-33.778c-4.711-5.867-10.739-10.075-16.974-11.85 C78.032,101.852,76.007,101.557,74.09,101.557z"/><path fill="#87796F" d="M103.279,106.404c10.929,13.612,11.292,31.479,0.811,39.895c-0.662,0.527-1.341,1.006-2.055,1.43 c3.095-7.665,0.963-19.131-6.252-28.12c-1.974-2.468-4.172-4.57-6.486-6.324c-9.904,5.045-20.382,8.741-31.356,9.102 c-2.572-9.962-0.431-19.776,6.556-25.386C74.979,88.574,92.337,92.791,103.279,106.404z"/><path fill="#3A312A" d="M102.035,149.229c-0.351,0-0.698-0.122-0.977-0.362c-0.488-0.419-0.655-1.102-0.414-1.699 c3.021-7.484,0.542-18.431-6.031-26.619c-1.626-2.033-3.469-3.878-5.489-5.495c-11.257,5.623-21.449,8.515-31.133,8.834 c-0.732,0.045-1.327-0.444-1.502-1.124c-2.804-10.86-0.096-21.179,7.068-26.931c5.44-4.374,12.724-5.741,20.512-3.853 c7.643,1.854,14.88,6.644,20.379,13.485h0.001c5.492,6.841,8.604,14.939,8.765,22.806c0.162,8.012-2.744,14.83-8.185,19.198 c-0.761,0.604-1.488,1.11-2.229,1.55C102.563,149.159,102.299,149.229,102.035,149.229z M89.297,111.785 c0.321,0,0.641,0.104,0.906,0.305c2.506,1.9,4.777,4.114,6.752,6.583c6.018,7.497,8.868,17.209,7.676,25.125 c3.74-3.771,5.711-9.186,5.583-15.467c-0.146-7.207-3.024-14.661-8.104-20.987c-5.086-6.328-11.744-10.75-18.747-12.448 c-6.862-1.665-13.227-0.501-17.925,3.275c-5.98,4.801-8.354,13.404-6.325,22.663c9.121-0.514,18.787-3.427,29.504-8.886 C88.831,111.839,89.064,111.785,89.297,111.785z"/><path fill="#F59689" d="M79.509,134.537c1.097,1.365,3.466,1.283,5.292-0.184c1.826-1.467,2.418-3.763,1.322-5.128 c-1.097-1.365-3.466-1.283-5.292,0.184C79.004,130.875,78.412,133.171,79.509,134.537z"/><path fill="#3A312A" d="M81.06,152.41c-0.396,0-0.79-0.155-1.085-0.464c-0.572-0.6-0.55-1.549,0.049-2.121 c1.662-1.586,2.179-3.399,1.627-5.706c-0.192-0.806,0.305-1.614,1.11-1.808c0.809-0.192,1.615,0.306,1.808,1.11 c0.803,3.355-0.029,6.24-2.473,8.573C81.805,152.273,81.432,152.41,81.06,152.41z"/><path fill="#3A312A" d="M72.645,133.213c-1.233,0-2.361-0.319-3.21-0.822c-0.712-0.423-0.947-1.343-0.524-2.056 c0.423-0.713,1.345-0.946,2.056-0.525c0.857,0.509,2.761,0.762,4.49-0.627c1.499-1.204,1.976-2.553,1.545-4.372 c-0.19-0.807,0.309-1.614,1.114-1.806c0.808-0.191,1.615,0.309,1.806,1.114c0.692,2.928-0.202,5.487-2.586,7.402 C75.829,132.732,74.157,133.213,72.645,133.213z"/><path fill="#F7E3C7" d="M174.618,146.385l-5.71,1.363l-2.788-11.682l5.71-1.363c3.229-0.771,6.47,1.221,7.239,4.441 c0.385,1.615,0.082,3.229-0.725,4.543C177.536,145,176.233,146,174.618,146.385z"/><path fill="#3A312A" d="M168.909,149.248c-0.275,0-0.547-0.075-0.785-0.222c-0.339-0.209-0.581-0.543-0.674-0.93l-2.788-11.683 c-0.093-0.388-0.027-0.795,0.181-1.134c0.209-0.339,0.543-0.581,0.93-0.674l5.709-1.362c4.032-0.959,8.087,1.53,9.047,5.552 c0.466,1.953,0.144,3.969-0.907,5.677c-1.051,1.709-2.704,2.906-4.654,3.371l-5.709,1.363 C169.143,149.234,169.025,149.248,168.909,149.248z M167.929,137.177l2.091,8.764l4.25-1.015c0.001,0,0.001,0,0.001,0 c1.172-0.279,2.164-0.998,2.796-2.025c0.63-1.025,0.823-2.235,0.544-3.408c-0.576-2.414-3.015-3.908-5.433-3.33L167.929,137.177z"/><rect width="50.083" height="12.011" x="118.116" y="141.714" fill="#F16C7A" transform="rotate(-13.419 143.185 147.734)"/><path fill="#3A312A" d="M120.193,160.874c-0.679,0-1.294-0.463-1.458-1.151c-0.192-0.807,0.305-1.615,1.11-1.808l47.256-11.277 l-2.091-8.765l-47.256,11.277c-0.807,0.195-1.615-0.305-1.808-1.11c-0.192-0.807,0.305-1.615,1.11-1.808l48.715-11.626 c0.389-0.093,0.795-0.026,1.134,0.181c0.339,0.209,0.581,0.543,0.674,0.93l2.788,11.683c0.192,0.807-0.305,1.615-1.11,1.808 l-48.715,11.626C120.426,160.861,120.309,160.874,120.193,160.874z"/></svg>