<svg xmlns="http://www.w3.org/2000/svg"  viewBox="0 0 64 64" width="50px" height="50px"><path fill="#4B5469" d="M52,51H12c-0.552,0-1-0.447-1-1s0.448-1,1-1h40c0.552,0,1,0.447,1,1S52.552,51,52,51z"/><path fill="#4B5469" d="M42,17c0,0,0.84,1.68,0.08,3.67C41.66,21.76,40.76,22.94,39,24h-3h-4l-3,2l-4-2c0,0-1.78-1.78-2.08-3.57	C22.78,19.55,23,18.66,24,18l2-3l3,1l3-4l2,3l4-1l1,4L42,17z"/><path fill="#383F4F" d="M42.08,20.67C41.66,21.76,40.76,22.94,39,24h-0.72c0.38-1.68-0.28-3-0.28-3l-3,1l-1-4l-4,1l-3-2l-2,3	l-2.03-0.68c0.14-0.49,0.46-0.94,1.03-1.32l2-3l3,1l3-4l2,3l4-1l1,4l3-1C42,17,42.84,18.68,42.08,20.67z"/><path fill="#F4CCCF" d="M41.33,27.78v0.62c0,0.62-0.39,1.18-0.99,1.37L39,30.22h-0.01C39,30.17,39,30.11,39,30.06v-3.73h0.89	C40.69,26.33,41.33,26.98,41.33,27.78z"/><path fill="#F4CCCF" d="M25,26.33v3.73c0,0.05,0,0.11,0.01,0.16H25l-1.34-0.45c-0.6-0.19-0.99-0.75-0.99-1.37v-0.62	c0-0.8,0.64-1.45,1.44-1.45H25z"/><path fill="#F4CCCF" d="M54,45h5l2,1l2,2v2h-5l-4-2l-0.57,1.13c-0.26,0.53-0.8,0.87-1.4,0.87H52h-0.89c-0.57,0-1-0.53-0.89-1.09	l0.54-2.72C50.9,45.5,51.51,45,52.22,45H54z"/><path fill="#F4CCCF" d="M10,45h1.78c0.71,0,1.32,0.5,1.46,1.19l0.54,2.72c0.11,0.56-0.32,1.09-0.89,1.09H12h-0.03	c-0.6,0-1.14-0.34-1.4-0.87L10,48l-4,2H1v-2l2-2l2-1H10z"/><path fill="#FDEBEC" d="M8.73,24l2.45,6.73C10.14,30.89,9.01,31,8,31l1.02,3.06C9.67,36.01,10,38.05,10,40.1V45H5L1,29v-1.79	c0-0.71,0.47-1.33,1.16-1.51C3.52,25.34,5.95,24.71,8.73,24z"/><path fill="#FDEBEC" d="M63,27.21V29l-4,16h-5v-4.9c0-2.05,0.33-4.09,0.98-6.04L56,31c-1.01,0-2.14-0.11-3.18-0.27L55.27,24	c2.78,0.71,5.21,1.35,6.57,1.7C62.53,25.88,63,26.5,63,27.21z"/><path fill="#FDEBEC" d="M39,26.33v3.73c0,0.05,0,0.11-0.01,0.16c-0.02,1.56-0.53,3.08-1.44,4.36l-1.51,2.12	c-0.58,0.81-1.53,1.3-2.53,1.3h-3.02c-1,0-1.95-0.49-2.53-1.3l-1.51-2.12c-0.91-1.28-1.42-2.8-1.44-4.36C25,30.17,25,30.11,25,30.06	v-3.73V24l4,2l3-2h4h3V26.33z"/><polygon fill="#F4CCCF" points="39,24 39,27 32,27 29,29 25,27 25,24 29,26 32,24"/><path fill="#E45081" d="M29.02,44H32c0,0-4,4-8,2c-3.05-1.52-2.61-5.37-2.23-7.11C22.11,39.3,22.51,39.68,23,40l2.57,2.57	C26.49,43.49,27.73,44,29.02,44z"/><path fill="#AB3C61" d="M34.98,44c1.29,0,2.53-0.51,3.45-1.43L41,40c0.49-0.32,0.89-0.7,1.23-1.11c0.38,1.74,0.82,5.59-2.23,7.11	c-4,2-8-2-8-2H34.98z"/><path fill="#3890BD" d="M39,24c1.76-1.06,2.66-2.24,3.08-3.33c3.32,0.8,8.71,2.18,13.19,3.33l-2.45,6.73C50.76,30.44,49,30,49,30	l-5,4c0,0,0,2.81-1.77,4.89C41.89,39.3,41.49,39.68,41,40l-2.57,2.57C37.51,43.49,36.27,44,34.98,44H32h-2.98	c-1.29,0-2.53-0.51-3.45-1.43L23,40c-0.49-0.32-0.89-0.7-1.23-1.11C20,36.81,20,34,20,34l-5-4c0,0-1.76,0.44-3.82,0.73L8.73,24	c4.96-1.28,11.05-2.83,14.19-3.57C23.22,22.22,25,24,25,24v2.33h-0.89c-0.8,0-1.44,0.65-1.44,1.45v0.62c0,0.62,0.39,1.18,0.99,1.37	L25,30.22h0.01c0.02,1.56,0.53,3.08,1.44,4.36l1.51,2.12c0.58,0.81,1.53,1.3,2.53,1.3h3.02c1,0,1.95-0.49,2.53-1.3l1.51-2.12	c0.91-1.28,1.42-2.8,1.44-4.36H39l1.34-0.45c0.6-0.19,0.99-0.75,0.99-1.37v-0.62c0-0.8-0.64-1.45-1.44-1.45H39V24z"/><path fill="#136694" d="M55.27,24l-2.45,6.73C50.76,30.44,49,30,49,30l-5,4c0,0,0,2.81-1.77,4.89C41.89,39.3,41.49,39.68,41,40	l-2.57,2.57C37.51,43.49,36.27,44,34.98,44h-5.96c-1.29,0-2.53-0.51-3.45-1.43L23,40c-0.49-0.32-0.89-0.7-1.23-1.11	C20,36.81,20,34,20,34l-5-4c0,0-1.76,0.44-3.82,0.73L8.73,24c0.33-0.08,0.66-0.17,1-0.26l1.45,3.99C13.24,27.44,15,27,15,27l5,4	c0,0,0,2.81,1.77,4.89C22.11,36.3,22.51,36.68,23,37l2.57,2.57c0.92,0.92,2.16,1.43,3.45,1.43h5.96c1.29,0,2.53-0.51,3.45-1.43	L41,37c0.49-0.32,0.89-0.7,1.23-1.11C44,33.81,44,31,44,31l5-4c0,0,1.76,0.44,3.82,0.73l1.45-3.99C54.61,23.83,54.94,23.92,55.27,24	z"/><path fill="#F4CCCF" d="M33,33h-1c-0.552,0-1-0.447-1-1v-2c0-0.553,0.448-1,1-1s1,0.447,1,1v1c0.552,0,1,0.447,1,1S33.552,33,33,33 z"/></svg>