<svg xmlns="http://www.w3.org/2000/svg"  viewBox="0 0 256 256" width="50px" height="50px"><polygon fill="#87796F" points="123.309,186.686 16.812,186.686 16.812,198.641 239.812,198.641 239.812,186.686 137.691,186.686"/><path fill="#3A312A" d="M239.811,200.141h-223c-0.829,0-1.5-0.672-1.5-1.5v-11.955c0-0.828,0.671-1.5,1.5-1.5h106.497 c0.829,0,1.5,0.672,1.5,1.5c0,0.828-0.671,1.5-1.5,1.5H18.311v8.955h220v-8.955h-100.62c-0.828,0-1.5-0.672-1.5-1.5 c0-0.828,0.672-1.5,1.5-1.5h102.12c0.828,0,1.5,0.672,1.5,1.5v11.955C241.311,199.469,240.64,200.141,239.811,200.141z"/><rect width="15" height="8.95" x="223.312" y="188.189" fill="#695B51"/><path fill="#D7E057" d="M75.733,67.477c0,0,3.563,13.236,13.824,13.85c0,0-13.697,4.731-13.928,14.849c0,0-2.696-14.19-13.514-14.7 C62.116,81.476,74.715,79.567,75.733,67.477z"/><path fill="#3A312A" d="M75.628,97.675c-0.713,0-1.335-0.506-1.472-1.218c-0.025-0.13-2.617-13.035-12.111-13.482 c-0.771-0.036-1.388-0.65-1.428-1.421c-0.04-0.77,0.511-1.444,1.273-1.561c0.464-0.072,11.443-1.906,12.348-12.643 c0.061-0.726,0.634-1.301,1.359-1.367c0.738-0.052,1.393,0.399,1.583,1.102c0.033,0.122,3.419,12.203,12.465,12.744 c0.714,0.042,1.298,0.583,1.396,1.292c0.098,0.708-0.319,1.388-0.994,1.622c-0.127,0.045-12.715,4.522-12.919,13.467 c-0.018,0.767-0.61,1.396-1.374,1.46C75.712,97.673,75.67,97.675,75.628,97.675z M67.354,81.309 c2.715,1.351,5.047,3.701,6.883,6.975c0.473,0.843,0.876,1.68,1.217,2.474c2.115-4.325,6.336-7.275,9.524-8.996 c-4.438-1.923-7.253-6.024-8.875-9.278C74.223,77.184,70.467,79.845,67.354,81.309z"/><path fill="#D7E057" d="M53.046,85.231c0,0,2.521,9.362,9.778,9.796c0,0-9.688,3.347-9.851,10.503c0,0-1.907-10.037-9.558-10.397 C43.415,95.133,52.326,93.782,53.046,85.231z"/><path fill="#3A312A" d="M52.971,107.029c-0.713,0-1.337-0.508-1.472-1.22c-0.017-0.087-1.791-8.879-8.155-9.179 c-0.77-0.036-1.387-0.65-1.427-1.421c-0.039-0.77,0.511-1.444,1.273-1.561c0.312-0.049,7.752-1.307,8.362-8.545 c0.061-0.726,0.635-1.303,1.36-1.368c0.727-0.069,1.392,0.4,1.582,1.102l0,0c0.023,0.083,2.341,8.328,8.42,8.691 c0.714,0.042,1.299,0.584,1.396,1.293c0.098,0.709-0.319,1.389-0.996,1.622c-0.085,0.029-8.704,3.102-8.842,9.119 c-0.018,0.768-0.611,1.397-1.376,1.461C53.054,107.027,53.013,107.029,52.971,107.029z M48.113,95.043 c2.287,1.408,3.803,3.643,4.777,5.664c1.454-2.419,3.775-4.18,5.753-5.343c-2.48-1.339-4.192-3.597-5.307-5.604 C52.098,92.241,50.107,93.944,48.113,95.043z"/><path fill="#D7E057" d="M53.046,57.359c0,0,2.521,9.362,9.778,9.796c0,0-9.688,3.346-9.851,10.503c0,0-1.907-10.037-9.558-10.397 C43.415,67.261,52.326,65.911,53.046,57.359z"/><path fill="#3A312A" d="M52.971,79.158c-0.713,0-1.337-0.508-1.472-1.22c-0.017-0.087-1.791-8.88-8.155-9.18 c-0.77-0.036-1.387-0.65-1.427-1.421c-0.039-0.77,0.511-1.444,1.273-1.561c0.312-0.049,7.752-1.306,8.362-8.544 c0.061-0.726,0.635-1.303,1.36-1.368c0.727-0.061,1.392,0.399,1.582,1.102l0,0c0.023,0.083,2.341,8.327,8.42,8.691 c0.714,0.043,1.299,0.584,1.396,1.293c0.098,0.709-0.32,1.389-0.996,1.622c-0.085,0.029-8.704,3.102-8.842,9.119 c-0.018,0.768-0.611,1.397-1.376,1.461C53.054,79.156,53.013,79.158,52.971,79.158z M48.113,67.171 c2.287,1.409,3.803,3.644,4.777,5.665c1.454-2.419,3.775-4.18,5.754-5.344c-2.48-1.338-4.192-3.597-5.307-5.604 C52.098,64.369,50.107,66.072,48.113,67.171z"/><path fill="#87796F" d="M195.073,107.193c-7.996,8.903-29.173,52.501-10.356,69.401c6.046,5.43-6.135-16.099,32.249-49.738 c8.926-7.822,9.577-20.521,3.531-25.951C214.451,95.475,203.068,98.29,195.073,107.193z"/><path fill="#3A312A" d="M186.083,178.933c-1.007,0-1.865-0.771-2.368-1.223c-10.749-9.653-8.825-26.655-5.319-39.219 c4.136-14.819,11.731-28.035,15.562-32.3c4.065-4.527,9.108-7.714,14.199-8.973c5.3-1.311,10.038-0.399,13.343,2.57 c2.86,2.568,4.484,6.687,4.456,11.297c-0.037,6.224-3.028,12.541-8.001,16.897c-26.076,22.854-28.443,40.064-29.335,46.544 c-0.326,2.366-0.522,3.795-1.857,4.284C186.529,178.895,186.303,178.933,186.083,178.933z M186.359,175.976h0.01H186.359z M212.705,99.638c-1.211,0-2.494,0.163-3.829,0.493c-4.513,1.116-9.019,3.98-12.687,8.064l0,0 c-3.643,4.055-10.897,16.744-14.904,31.103c-3.251,11.646-5.137,27.294,4.198,35.965c0.056-0.36,0.111-0.763,0.163-1.144 c0.934-6.783,3.412-24.801,30.331-48.392c4.337-3.801,6.945-9.28,6.979-14.66c0.022-3.753-1.239-7.051-3.461-9.046 C217.74,100.445,215.4,99.638,212.705,99.638z M195.073,107.193h0.01H195.073z"/><path fill="#F4E0C4" d="M66.423,144.794l-40.271,5.993c-5.679,0.684-10.135,2.741-9.924,8.084l2.589,21.827 c0.449,3.723,3.83,6.378,7.553,5.929c3.723-0.448,6.368-3.829,5.92-7.552l-1.656-13.751l112.1-9.946 c5.953-0.717,10.197-6.124,9.48-12.076c-0.717-5.953-6.124-10.197-12.076-9.48l-59.95,8.922L66.423,144.794z"/><path fill="#3A312A" d="M25.54,188.178c-1.846,0-3.627-0.612-5.101-1.77c-1.742-1.367-2.847-3.331-3.112-5.529l-2.589-21.83 c-0.004-0.039-0.007-0.078-0.009-0.118c-0.215-5.467,3.568-8.707,11.244-9.633l40.23-5.987c0.816-0.124,1.583,0.442,1.705,1.263 c0.122,0.819-0.444,1.582-1.263,1.704l-40.271,5.993c-7.883,0.951-8.726,4.141-8.648,6.485l2.582,21.767 c0.169,1.4,0.874,2.653,1.985,3.525c1.112,0.874,2.498,1.262,3.899,1.091c2.891-0.348,4.958-2.987,4.61-5.883l-1.656-13.751 c-0.048-0.403,0.068-0.809,0.324-1.124c0.255-0.316,0.628-0.514,1.033-0.55l112.099-9.945c5.075-0.612,8.741-5.281,8.124-10.402 c-0.299-2.481-1.546-4.698-3.512-6.241c-1.965-1.543-4.416-2.228-6.896-1.93l-59.909,8.916c-0.812,0.13-1.582-0.441-1.705-1.263 c-0.122-0.819,0.444-1.582,1.263-1.704l59.95-8.922c3.315-0.408,6.552,0.504,9.148,2.543c2.596,2.038,4.243,4.965,4.638,8.241 c0.814,6.764-4.026,12.93-10.79,13.745l-110.604,9.814l1.471,12.214c0.546,4.539-2.697,8.675-7.229,9.221 C26.212,188.158,25.875,188.178,25.54,188.178z"/><path fill="#87796F" d="M66.423,144.795l-24.152,3.595l1.895,15.736l98.561-8.749c5.957-0.717,10.201-6.124,9.485-12.071 c-0.717-5.957-6.124-10.201-12.081-9.483l-59.945,8.923L66.423,144.795z"/><path fill="#3A312A" d="M44.165,165.626c-0.751,0-1.396-0.562-1.488-1.32l-1.895-15.735c-0.097-0.807,0.465-1.544,1.269-1.663 l24.152-3.596c0.815-0.126,1.582,0.442,1.705,1.263c0.122,0.819-0.443,1.582-1.263,1.704l-22.709,3.381l1.547,12.844l97.113-8.619 c2.437-0.294,4.654-1.542,6.198-3.507c1.543-1.965,2.228-4.412,1.93-6.891c-0.616-5.124-5.292-8.798-10.411-8.174l-59.904,8.917 c-0.812,0.129-1.582-0.441-1.705-1.263c-0.122-0.819,0.444-1.582,1.263-1.704l59.945-8.923c6.812-0.819,12.977,4.023,13.79,10.788 c0.395,3.274-0.511,6.507-2.549,9.102c-2.039,2.596-4.967,4.242-8.245,4.638l-98.608,8.753 C44.254,165.624,44.209,165.626,44.165,165.626z"/><path fill="#F7E3C7" d="M207.015,159.569c-16.172,0.872-29.782-7.718-30.4-19.188c-0.617-11.469,11.992-21.474,28.163-22.346 c16.172-0.872,29.782,7.718,30.4,19.188C235.796,148.692,223.187,158.697,207.015,159.569z"/><path fill="#3A312A" d="M204.75,161.131c-7.272,0-14.146-1.837-19.567-5.259c-6.165-3.891-9.739-9.363-10.065-15.409 c-0.66-12.277,12.609-23.011,29.58-23.926c8.136-0.44,15.912,1.408,21.914,5.195c6.165,3.891,9.739,9.363,10.065,15.409 c0.66,12.276-12.609,23.01-29.58,23.926l0,0C206.31,161.109,205.527,161.131,204.75,161.131z M207.016,159.569h0.01H207.016z M207.052,119.474c-0.728,0-1.458,0.02-2.192,0.06c-15.32,0.826-27.318,10.143-26.746,20.768c0.271,5.048,3.351,9.677,8.67,13.034 c5.481,3.459,12.645,5.148,20.151,4.736l0,0c15.319-0.827,27.318-10.144,26.746-20.768c-0.271-5.048-3.351-9.677-8.67-13.034 C220.065,121.148,213.756,119.474,207.052,119.474z"/><path fill="#87796F" d="M206.612,109.662c-17.432,0.942-30.982,12.593-30.256,26.015c0.049,0.844,0.145,1.67,0.306,2.485 c3.645-7.42,13.607-13.482,25.117-14.105c3.156-0.176,6.188,0.058,9.038,0.611c2.851,10.743,7.089,21.014,14.142,29.429 c9.137-4.731,15.018-12.874,14.534-21.822C238.775,118.844,224.053,108.729,206.612,109.662z"/><path fill="#3A312A" d="M224.959,155.597c-0.433,0-0.857-0.186-1.15-0.536c-6.223-7.424-10.87-16.946-14.193-29.085 c-2.551-0.425-5.156-0.566-7.753-0.421c-10.488,0.567-20.296,6.023-23.854,13.268c-0.284,0.579-0.911,0.912-1.543,0.826 c-0.639-0.085-1.151-0.566-1.275-1.198c-0.166-0.846-0.274-1.725-0.331-2.687c-0.377-6.974,2.762-13.688,8.839-18.913 c5.965-5.129,14.074-8.214,22.834-8.688h0.001c8.763-0.467,17.161,1.727,23.641,6.182c6.604,4.54,10.444,10.879,10.816,17.85 c0.495,9.173-5.383,18.076-15.342,23.233C225.429,155.542,225.192,155.597,224.959,155.597z M203.841,122.499 c2.441,0,4.875,0.233,7.262,0.696c0.565,0.109,1.017,0.532,1.164,1.088c3.085,11.626,7.365,20.77,13.067,27.904 c8.249-4.666,13.073-12.175,12.659-19.831c-0.32-6.021-3.701-11.538-9.52-15.538c-5.938-4.083-13.675-6.092-21.781-5.658 c-8.102,0.438-15.573,3.267-21.039,7.967c-4.763,4.094-7.48,9.173-7.795,14.478c5.101-6.17,14.236-10.525,23.839-11.046 C202.412,122.519,203.127,122.499,203.841,122.499z"/><path fill="#F59689" d="M201.518,146.138c-1.749,0.094-3.268-1.726-3.394-4.065c-0.126-2.339,1.189-4.312,2.938-4.406 c1.748-0.094,3.268,1.725,3.394,4.065C204.581,144.071,203.266,146.044,201.518,146.138z"/><path fill="#3A312A" d="M188.288,157.408c-0.017,0-0.032,0-0.048-0.001c-0.828-0.026-1.479-0.719-1.452-1.546 c0.106-3.377,1.7-5.921,4.735-7.563c0.73-0.396,1.639-0.123,2.033,0.605c0.395,0.729,0.123,1.639-0.605,2.033 c-2.087,1.129-3.093,2.724-3.165,5.019C189.761,156.768,189.095,157.408,188.288,157.408z"/><path fill="#3A312A" d="M210.288,152.278c-0.148,0-0.3-0.021-0.449-0.068c-2.096-0.658-4.438-2.961-4.626-6.463 c-0.164-3.055,1.146-5.429,3.789-6.865c0.727-0.396,1.64-0.127,2.034,0.601c0.396,0.729,0.127,1.639-0.601,2.034 c-1.643,0.894-2.33,2.148-2.226,4.068c0.119,2.216,1.577,3.464,2.528,3.762c0.79,0.249,1.23,1.091,0.982,1.881 C211.519,151.868,210.927,152.278,210.288,152.278z"/><path fill="#E66B7A" d="M120.747,132.216l38.462-5.791c7.87-1.185,15.235,3.895,17.043,11.494 c2.096,8.827-4.045,17.277-13.021,18.629l-37.96,5.716L120.747,132.216z"/><path fill="#3A312A" d="M125.269,163.762c-0.729,0-1.369-0.533-1.481-1.276l-4.524-30.046c-0.123-0.819,0.441-1.584,1.26-1.707 l38.462-5.792c8.508-1.278,16.735,4.268,18.726,12.63c1.076,4.533,0.229,9.16-2.384,13.029c-2.697,3.992-7.024,6.7-11.873,7.431 l-37.96,5.715C125.419,163.757,125.344,163.762,125.269,163.762z M122.454,133.476l4.078,27.079l36.477-5.491 c4.021-0.606,7.605-2.845,9.834-6.143c2.139-3.166,2.832-6.95,1.952-10.656c-1.632-6.858-8.382-11.411-15.36-10.357 L122.454,133.476z"/><path fill="#F16C7A" d="M166.552,151.072l-4.77,23.57l23.36,0.04v12l-30.7-0.05c-1.8,0-3.5-0.81-4.64-2.2 c-1.13-1.4-1.59-3.23-1.23-4.99l6.21-30.74L166.552,151.072z"/><path fill="#3A312A" d="M185.142,188.183c-0.001,0-0.002,0-0.002,0l-30.7-0.05c-2.251,0-4.365-1.002-5.798-2.749 c-1.43-1.773-1.988-4.044-1.54-6.241l6.209-30.737c0.165-0.813,0.951-1.329,1.768-1.174c0.813,0.164,1.338,0.956,1.174,1.768 l-6.21,30.74c-0.271,1.32,0.068,2.686,0.927,3.752c0.854,1.04,2.122,1.642,3.473,1.642l29.2,0.048v-9.001l-21.863-0.037 c-0.449-0.001-0.875-0.203-1.159-0.552c-0.284-0.348-0.397-0.806-0.308-1.246l4.771-23.57c0.164-0.811,0.959-1.335,1.768-1.172 c0.812,0.164,1.337,0.955,1.172,1.768l-4.407,21.775l21.53,0.037c0.827,0.001,1.497,0.673,1.497,1.5v12 c0,0.398-0.158,0.78-0.44,1.061C185.92,188.025,185.539,188.183,185.142,188.183z"/><path fill="#F5E1C5" d="M190.713,174.689l-5.568-0.009v12l5.548,0.009h0.01c3.31,0,6-2.68,6-5.99 C196.713,177.389,194.023,174.699,190.713,174.689z"/><path fill="#3A312A" d="M190.703,188.189l-5.561-0.009c-0.828-0.001-1.498-0.673-1.498-1.5v-12c0-0.398,0.158-0.78,0.441-1.062 c0.281-0.281,0.662-0.438,1.059-0.438c0.001,0,0.002,0,0.002,0l5.568,0.009c0.001,0,0.002,0,0.003,0 c4.14,0.013,7.497,3.383,7.485,7.515C198.203,184.829,194.839,188.189,190.703,188.189z M186.644,185.183l4.05,0.007 c2.49,0,4.509-2.015,4.509-4.49c0.007-2.481-2.009-4.503-4.495-4.51l-4.064-0.007V185.183z"/></svg>