<svg xmlns="http://www.w3.org/2000/svg"  viewBox="0 0 48 48" width="50px" height="50px"><path fill="#99520b" d="M25.734,34.26L25.07,35.02l-6.372,5.462c-0.839,0.719-0.936,1.981-0.217,2.82 C18.877,43.763,19.438,44,20.001,44c0.461,0,0.924-0.158,1.301-0.481l6.365-5.456c0.022-0.017,0.043-0.034,0.065-0.051 l0.742-0.638L25.734,34.26z"/><path fill="#c16e14" d="M39.887,19.577l-5.054-3.285c-0.18-0.121-0.378-0.197-0.582-0.232l-5.473-1.033 c-0.807-0.162-1.599,0.381-1.752,1.195c-0.154,0.813,0.381,1.599,1.195,1.752l5.122,0.968l3.938,3.241L39.887,19.577z"/><path fill="#c16e14" d="M39.694,36.937c-0.017-0.026-0.034-0.053-0.052-0.078l-1.464-2.129l-4.488,1.682l0.814,0.763 l-5.207,1.952c-1.034,0.389-1.559,1.541-1.171,2.575c0.302,0.803,1.063,1.299,1.873,1.299c0.233,0,0.471-0.042,0.702-0.128 l7.959-2.985c0.137-0.048,0.271-0.111,0.399-0.191c0.046-0.029,0.092-0.061,0.136-0.093c0-0.001,0-0.001,0.001-0.001 c0,0,0,0,0-0.001c0.4-0.298,0.658-0.721,0.757-1.177c0-0.001,0.001-0.002,0.001-0.003c0,0,0-0.001,0-0.002 c0.013-0.059,0.022-0.118,0.03-0.177c0,0,0,0,0-0.001v-0.001C40.039,37.8,39.947,37.339,39.694,36.937z"/><circle cx="44.5" cy="16.5" r="3.5" fill="#c16e14"/><path fill="#bf360c" d="M36.482,22.982C32.332,21.032,27.249,21,27,21l-0.001,2c0.053,0,4.343,0.027,7.968,1.497 L36.482,22.982z"/><path fill="#64b5f6" d="M41.975,21.025c-0.211-0.211-0.77-0.595-0.549-0.449l-2.395-1.557l-8.214,8.214l4.633,5.265 l6.525-6.525C43.342,24.608,43.342,22.392,41.975,21.025z"/><path fill="#455a64" d="M30.732,32.267C30.26,31.795,30,31.168,30,30.5s0.26-1.295,0.732-1.767l-0.084-0.084l-5.578,6.37 l2.643,3.003c0.049-0.039,0.098-0.078,0.143-0.123l4.641-3.978L30.732,32.267z"/><path fill="#546e7a" d="M36.158,31.791l-4.633-5.265l-1.5,1.5c-1.367,1.366-1.367,3.583,0,4.949l4.479,4.2l4.258-1.596 L36.158,31.791z"/><path fill="#e53935" d="M38.018,29.932C36.182,28.096,33.418,27,30.625,27c-7.024,0-12.607,2.858-12.663,2.887 l-0.925-1.774C17.281,27.986,23.092,25,30.625,25c3.312,0,6.604,1.315,8.807,3.518L38.018,29.932z"/><g><circle cx="18.5" cy="7.5" r="3.5" fill="#ffb74d"/><path fill="#f9a825" d="M4.001,38c-0.563,0-1.124-0.237-1.52-0.698c-0.719-0.839-0.622-2.102,0.217-2.82l7-6 c0.838-0.719,2.101-0.623,2.82,0.217c0.719,0.839,0.622,2.102-0.217,2.82l-7,6C4.925,37.842,4.462,38,4.001,38z"/><path fill="#ffb74d" d="M23.978,19.243c-0.142-0.817-0.922-1.365-1.734-1.221l-4.363,0.759l-0.992-4.132l-2.908,2.905 l1.373,3.495c0,0,0.011-0.012,0.016-0.017C15.593,21.609,16.133,22,16.749,22c0.085,0,0.171-0.007,0.258-0.022l5.75-1 C23.573,20.836,24.12,20.06,23.978,19.243z"/><path fill="#ffb74d" d="M10.911,13.557l2.71-2.705l-5.73-2.709C7.595,8.005,7.26,7.965,6.941,8.032l-4.75,1 c-0.812,0.171-1.33,0.966-1.159,1.776c0.171,0.812,0.971,1.335,1.776,1.159l4.159-0.875L10.911,13.557z"/><path fill="#ffb74d" d="M12.857,29.257L11.95,27H6.282l0.757,1H2c-1.104,0-2,0.896-2,2s0.896,2,2,2h9 c0.664,0,1.284-0.329,1.656-0.879S13.104,29.873,12.857,29.257z"/><path fill="#ff66a1" d="M16.67,13.74c-0.25-1.04-0.94-1.89-1.91-2.35l-2.1-0.99l-2.62,2.61l-4.454,4.448L4.88,18.171 l4.629,5.261l4.871-4.862l2.78-2.78L16.67,13.74z"/><path fill="#546e7a" d="M10.219,22.724l-4.633-5.265L4.03,19.03c-1.189,1.18-1.346,3.008-0.472,4.359l0.216,0.298L7.039,28 h5.316L10.219,22.724z"/></g></svg>